<?xml version="1.0" encoding="UTF-8"?>
<svg id="Layer_2" data-name="Layer 2" xmlns="http://www.w3.org/2000/svg" xmlns:xlink="http://www.w3.org/1999/xlink" viewBox="0 0 231.12 267.39">
  <defs>
    <style>
      .cls-1 {
        fill: #299285;
      }

      .cls-2 {
        fill: #d7e5bd;
      }

      .cls-3 {
        fill: #72c3c5;
      }

      .cls-4 {
        fill: #2c8d85;
      }

      .cls-5 {
        fill: #2f9381;
      }

      .cls-6 {
        fill: #246e5f;
      }

      .cls-7 {
        fill: #a8d2e2;
      }

      .cls-8 {
        fill: #339766;
      }

      .cls-9 {
        fill: #81c68a;
      }

      .cls-10 {
        fill: #236f64;
      }

      .cls-11 {
        fill: #176a4e;
      }

      .cls-12 {
        fill: #2e9678;
      }

      .cls-13 {
        fill: #e9f0d9;
      }

      .cls-14 {
        fill: #54bdbc;
      }

      .cls-15 {
        fill: #9fcbc9;
      }

      .cls-16 {
        fill: #dae8ce;
      }

      .cls-17 {
        fill: #205c47;
      }

      .cls-18 {
        fill: #b0dcc5;
      }

      .cls-19 {
        fill: #79b2b2;
      }

      .cls-20 {
        fill: #8fd0b6;
      }

      .cls-21 {
        fill: #aed8a7;
      }

      .cls-22 {
        fill: #32935b;
      }

      .cls-23 {
        fill: #62a49e;
      }

      .cls-24 {
        fill: #58bc96;
      }

      .cls-25 {
        fill: #40ab84;
      }

      .cls-26 {
        fill: #257c87;
      }

      .cls-27 {
        fill: #1d7984;
      }

      .cls-28 {
        fill: #c7e4e9;
      }

      .cls-29 {
        fill: #75c9c1;
      }

      .cls-30 {
        fill: #a0cedc;
      }

      .cls-31 {
        fill: #176964;
      }

      .cls-32 {
        fill: #369f7e;
      }

      .cls-33 {
        fill: #83c68b;
      }

      .cls-34 {
        fill: #b1d788;
      }

      .cls-35 {
        fill: url(#linear-gradient-2);
      }

      .cls-36 {
        fill: #45b2a5;
      }

      .cls-37 {
        fill: #89d1cb;
      }

      .cls-38 {
        fill: #329288;
      }

      .cls-39 {
        fill: #4fb1c7;
      }

      .cls-40 {
        fill: #2b8d77;
      }

      .cls-41 {
        fill: #6bc184;
      }

      .cls-42 {
        fill: #9dd08b;
      }

      .cls-43 {
        fill: #f8fcfc;
      }

      .cls-44 {
        fill: #55bebf;
      }

      .cls-45 {
        fill: #bedaaf;
      }

      .cls-46 {
        fill: #58c0b6;
      }

      .cls-47 {
        fill: #299071;
      }

      .cls-48 {
        fill: #b0dab3;
      }

      .cls-49 {
        fill: #2d9155;
      }

      .cls-50 {
        fill: #b6d7e4;
      }

      .cls-51 {
        fill: #69c293;
      }

      .cls-52 {
        fill: #2f9ab1;
      }

      .cls-53 {
        fill: url(#linear-gradient);
      }

      .cls-54 {
        fill: #60b57a;
      }

      .cls-55 {
        fill: #a8c8da;
      }

      .cls-56 {
        fill: #55b4c8;
      }

      .cls-57 {
        fill: #5bbb92;
      }

      .cls-58 {
        fill: #5babcf;
      }

      .cls-59 {
        fill: #3faf82;
      }

      .cls-60 {
        fill: #359a8d;
      }

      .cls-61 {
        fill: #34935d;
      }

      .cls-62 {
        fill: #49a76e;
      }

      .cls-63 {
        fill: #b1dbb8;
      }

      .cls-64 {
        fill: #a5925e;
      }

      .cls-65 {
        fill: #309462;
      }

      .cls-66 {
        fill: #2d9987;
      }

      .cls-67 {
        fill: #54b178;
      }

      .cls-68 {
        fill: #bfdea0;
      }

      .cls-69 {
        fill: #1a443c;
      }

      .cls-70 {
        fill: #8fd0d0;
      }

      .cls-71 {
        fill: #30915d;
      }

      .cls-72 {
        fill: #7fc582;
      }

      .cls-73 {
        fill: #329272;
      }

      .cls-74 {
        fill: #b2dbdd;
      }

      .cls-75 {
        fill: #226e60;
      }

      .cls-76 {
        fill: #5abd91;
      }

      .cls-77 {
        fill: #329168;
      }

      .cls-78 {
        fill: #1a5434;
      }

      .cls-79 {
        fill: #2b844a;
      }

      .cls-80 {
        fill: #3f8a82;
      }

      .cls-81 {
        fill: #17593c;
      }

      .cls-82 {
        fill: #39a686;
      }

      .cls-83 {
        fill: #44a266;
      }

      .cls-84 {
        fill: #329c90;
      }

      .cls-85 {
        fill: #53b893;
      }

      .cls-86 {
        fill: #319359;
      }

      .cls-87 {
        fill: #79c3ba;
      }

      .cls-88 {
        fill: #a8d3a6;
      }

      .cls-89 {
        fill: #9fd3d2;
      }

      .cls-90 {
        fill: #b7dcbf;
      }

      .cls-91 {
        fill: #9f8555;
      }

      .cls-92 {
        fill: #55bdb6;
      }

      .cls-93 {
        fill: #4bb57b;
      }

      .cls-94 {
        fill: #66ba7e;
      }

      .cls-95 {
        fill: #c1dd94;
      }

      .cls-96 {
        fill: #31928c;
      }

      .cls-97 {
        fill: #7ecdc4;
      }

      .cls-98 {
        fill: #1b7161;
      }

      .cls-99 {
        fill: #268f63;
      }

      .cls-100 {
        fill: #2a8d6b;
      }

      .cls-101 {
        fill: #79c4ac;
      }

      .cls-102 {
        fill: #56af6f;
      }

      .cls-103 {
        fill: #3fa499;
      }

      .cls-104 {
        fill: #174641;
      }

      .cls-105 {
        fill: #d5e6e1;
      }

      .cls-106 {
        fill: #2a6286;
      }

      .cls-107 {
        fill: #add7d8;
      }

      .cls-108 {
        fill: #13362f;
      }

      .cls-109 {
        fill: #68b19a;
      }

      .cls-110 {
        fill: #82c3cd;
      }

      .cls-111 {
        fill: #47b37d;
      }

      .cls-112 {
        fill: #51b982;
      }

      .cls-113 {
        fill: #a1d3dc;
      }

      .cls-114 {
        fill: #f6f9f8;
      }

      .cls-115 {
        fill: #319eb0;
      }

      .cls-116 {
        fill: #7bcbbe;
      }

      .cls-117 {
        fill: #4ab683;
      }

      .cls-118 {
        fill: #50bb86;
      }

      .cls-119 {
        fill: #f9fcfc;
      }

      .cls-120 {
        fill: #d3e6b2;
      }

      .cls-121 {
        fill: #e2ebd1;
      }

      .cls-122 {
        fill: #4a9c6a;
      }

      .cls-123 {
        fill: #246e63;
      }

      .cls-124 {
        fill: #c0e1df;
      }

      .cls-125 {
        fill: #2b9086;
      }

      .cls-126 {
        fill: #a3d3dd;
      }

      .cls-127 {
        fill: #55ac70;
      }

      .cls-128 {
        fill: #62bbce;
      }

      .cls-129 {
        fill: #296189;
      }

      .cls-130 {
        fill: #5abe80;
      }

      .cls-131 {
        fill: #47ae75;
      }

      .cls-132 {
        fill: #2a907f;
      }

      .cls-133 {
        fill: #a5d6a9;
      }

      .cls-134 {
        fill: #7dcdc2;
      }

      .cls-135 {
        fill: #276881;
      }

      .cls-136 {
        fill: #71c387;
      }

      .cls-137 {
        fill: #a3c8c4;
      }

      .cls-138 {
        fill: #61bbb7;
      }

      .cls-139 {
        fill: #dbc37f;
      }

      .cls-140 {
        fill: #5aa9ca;
      }

      .cls-141 {
        fill: #1c786a;
      }

      .cls-142 {
        fill: #2b8e5d;
      }

      .cls-143 {
        fill: #176c5b;
      }

      .cls-144 {
        fill: #5c908c;
      }

      .cls-145 {
        fill: #2fa595;
      }

      .cls-146 {
        fill: #7fc7cd;
      }

      .cls-147 {
        fill: #8ecfce;
      }

      .cls-148 {
        fill: #b1d6e0;
      }

      .cls-149 {
        fill: #94ce96;
      }

      .cls-150 {
        fill: #33987d;
      }

      .cls-151 {
        fill: #44ac79;
      }

      .cls-152 {
        fill: #66c5b2;
      }

      .cls-153 {
        fill: #309087;
      }

      .cls-154 {
        fill: #acd588;
      }

      .cls-155 {
        fill: #40ab88;
      }

      .cls-156 {
        fill: #57bd7b;
      }

      .cls-157 {
        fill: #b4dfd1;
      }

      .cls-158 {
        fill: #349c6c;
      }

      .cls-159 {
        fill: #cee3e8;
      }

      .cls-160 {
        fill: #299182;
      }

      .cls-161 {
        fill: #288564;
      }

      .cls-162 {
        fill: #349e94;
      }

      .cls-163 {
        fill: #298f7e;
      }

      .cls-164 {
        fill: #166771;
      }

      .cls-165 {
        fill: #58bdad;
      }

      .cls-166 {
        fill: #309256;
      }

      .cls-167 {
        fill: #7ec381;
      }

      .cls-168 {
        fill: #3aa398;
      }

      .cls-169 {
        fill: #addbd4;
      }

      .cls-170 {
        fill: #d1e6b4;
      }

      .cls-171 {
        fill: #6bb;
      }

      .cls-172 {
        fill: #359eb7;
      }

      .cls-173 {
        fill: #5caccc;
      }

      .cls-174 {
        fill: #6fc1c2;
      }

      .cls-175 {
        fill: #b2dcbb;
      }

      .cls-176 {
        fill: #b5d7c4;
      }

      .cls-177 {
        fill: #2a628a;
      }

      .cls-178 {
        fill: #d1e9d3;
      }

      .cls-179 {
        fill: #81b6b9;
      }

      .cls-180 {
        fill: #7dc27c;
      }

      .cls-181 {
        fill: #5aabce;
      }

      .cls-182 {
        fill: #196755;
      }

      .cls-183 {
        fill: #8ecdd3;
      }

      .cls-184 {
        fill: #70bb7a;
      }

      .cls-185 {
        fill: #56b277;
      }

      .cls-186 {
        fill: #1a6650;
      }

      .cls-187 {
        fill: #5cbe7e;
      }
    </style>
    <linearGradient id="linear-gradient" x1="99.31" y1="66.12" x2="23" y2="111.82" gradientUnits="userSpaceOnUse">
      <stop offset="0" stop-color="#d8e7c7"/>
      <stop offset="1" stop-color="#a9d489"/>
    </linearGradient>
    <linearGradient id="linear-gradient-2" x1="162.57" y1="124.07" x2="190.44" y2="135.49" gradientUnits="userSpaceOnUse">
      <stop offset="0" stop-color="#68c4a9"/>
      <stop offset="1" stop-color="#5dc2bc"/>
    </linearGradient>
  </defs>
  <g id="Layer_1-2" data-name="Layer 1">
    <g id="Generative_Object_0_0_" data-name="Generative Object (0, 0)">
      <path class="cls-104" d="M82.56,139.34c.27,0,.32.11.37.27.12.35-.31,1.05-1.14.57-.14.48.22.93.28,1.41l-5.29-2.75-30.4,15.72,30.37,16.12,13.36-6.82,6.87-3.54c-.34,1.31-1.13,2.41-2.65,3.06-5.69,2.45-10.98,5.38-16.86,8.46l-.1,13.21.12,5.51c.11,5.05-.41,9.82-.08,14.56.29-1.16,4.05-1.14,4.13-2.97l.45-11.07.45-18.19c1.32.21,2.62-.65,3.08-1.51,1.47.51,1.97-.81,2.47-1.31.27.04.8.15.65-.52-.05-.2.72,0,.82.41-.02-.7.36-1.06.39-.96.84.68.68-.16.73-.35.07-.3,1.05.1,1.18.3.75-1.69,3.82-1.2,3.71-2.99-.08-1.42,1.89-2.37,2.2-3.37.1-.8.74-.68,1.19-.15.94-.72,2.14-1.47,2.83-.83l1.06.99c.36.33,1.3-.2,1.66-.17.67.42.97-.17,1.34-.43,1.09.49,1.51-.08,1.93-.53.77-.84-.31-1.33-.45-1.86.43-1.41-.1-3.55-.37-4.67.54,0,.99-.13,1.78-.82l-1.82-3.91-2.05.78c.75,1.08,1.12,2.04,1.34,2.81-.42-.04-.62.13-.71.35-.11.3.1.48.16.71-.94-1.6-2.57-2.73-4.32-3.61.21-.64.32-.2,1.72-.32-.75-.73-.88-1.23-1.57-1.55.9-1.23-.79-2.13-1.19-2.94-.81-1.65-3.04-2.38-4.65-3.26l-8.74-4.74c-.4-.22-1.06-1.16-1.63-.99-.39.12-.94.29-1.05.85-.32.19-.65.04-.78-.17-.26-.43.07-1.01.54-1.34.2-.14-.39-.81-.36-1.03.04-.31.51-.83.97-.94,2.81-.73,4.81-2.95,5.16-1.68l-5.47,2.64,14.4,7.53-1.83-3.93-2.54-5.55-.44-2.55-2.81,1.45c.45-1.43,2.74-2.1,4.11-1.65-.2,1.92.38,3.87,1.46,5.74l2.68-4.85c.76-1.37,1.53-2.6,1.48-4.11-1.97.37-3.19-.37-4.55-.34.26-.49.38-1.22,1-1.37-.04.37.49,1.09.83.77,2.85.62,4.56-1.2,5-3.58.04-.22-.04-.46-.19-.69.49-.07,1.06-.26,1.85-.02-1.27,2.43-2.61,4.49-3.42,7.38,1.53.82,3.32,1,4.86-.29-1.82-2.38-1.17-6.09,1.73-7.41-.51,2.13-2.19,3.31-1.11,5.59,3.63-3.22,6.03-7.17,9.25-11.08.47.92-.25,2.02-.67,2.61l-6.22,8.53c2.28.67,4.12.19,5.87-.19l5.24-1.12c4.5-.96,8.83-1.85,12.72-3.61,14.79-5.43,27.42-16.08,35.7-29.8,6.43-10.66,8.73-22.35,6.71-34.33-.69-4.1-1.76-8.16-3.51-12.29-1.66-3.93-2.74-7.89-2.19-12.43l-2.39,2.96c.92-5.21,6.94-9.58,6.96-10.81.01-.87-1.56-1.11-2.04-1.55-1.89-1.77-3.97-1.3-6.45-.27,2.14-2.31,4.62-3.41,6.34-5.74,1.14-1.55-1.05-5.49,2.57-7.43-3.93-5.72-9.6-9.43-16.1-9.83-3.74-.23-7.46.37-11.08,1.22-7.64,1.78-13.53,7.47-16.15,15-1.83,5.26-2.76,10.59-1.14,16.36l2.3-2.1c-.61,4-1.88,7.54-4.83,10.29l-7.11,6.63-12.8,12.93-16.21,18.18c-3.64,4.08-7.08,7.85-10.51,12.1l-8.32,8.09-5.33,5.09c-1.67,1.59-3.38,3.17-4.03,5.76,4.85-2.09,8.48-5.25,11.39-9.37,2.06-2.91,4.81-5.14,6.72-8.23s8.55-8.87,12.29-11.73l14.12-10.8c7.6-7.93,17.01-13.05,27.45-14.46,2.63-.35,5.29-.71,8.19-.27,3.39.51,6.92.86,9.62,3.13,3.29,3.42,3.35,6.82,3.04,11.25-.44,6.18-3.74,11.02-6.58,15.99l-11.73,9.67c-2.41,2.07-4.69,4-7.19,5.67.28-.74.52-1.04-.08-1.64l8.81-6.73c.33-.25.74-.69.68-1.01-.41-2.19-3.32,2.13-8.26,4.77-10.46,5.6-21.14,10.28-32.16,14.8l-12.68,5.21-.17-1.05c5.78-1.89,11.16-4.54,17.01-6.94,9.4-3.86,18.48-7.79,27.29-12.71,2.25-1.26,4.2-2.43,5.87-4.38-2.13.51-3.49,1.46-5.47.77-.4-.14-.53-1.21-1.06-1.75-.42.45-1.13,1.16-1.75,1.42-.63-.95-2.84,1.64-4.41-1.54-3.73,2.35-7.41,4.24-11.49,5.94l-13.51,5.64-11.57,3.66c-5.18,1.64-13.28,4.48-16.94,2.15l-4.39,5.66c-3.24,4.17,13.59-.42,19.98-2.43,5.69-1.79,11.29-3.63,16.9-6.42l25.43-12.65-.03.73-.9.73-13.31,6.94c-12.98,6.76-26.24,12.05-40.38,14.73-2.7.51-5.14,1.31-8,.92-.35-.3-.73-.63-1.02-.33l-.72.75c-.31-.38-.59-.62-1.04-.61.39-.43,1.07-.69.92-1.68-3.6,1.81-8.76,4.23-8.89,6.7-.33.22-.73.55-1.26.25-.09-1.86.37-3.19,2.11-4.27l6.57-4.11c1.14-.71,2.67-.83,3.39-2.42l-3.9,1.5c-1.62-1.47,1.52-5.65,4.36-8.51l14.53-14.6,23.32-26.11c6.66-7.45,13.11-14.68,20.7-21.17,1.55-1.32,3.02-2.58,4.01-4.49-3.25-10.08-1.1-21.41,6.04-29.19,6.83-7.45,20.5-10.56,29.59-6.89,4.69,1.89,7.87,5.4,11.16,9.1,4.68,5.27,18.68,3.08,21.3,12.21l-3.65-.64c-5.66.19-11.56.73-16.48,3.66-2.88,1.71-4.77,5.28-5.7,8.33-1.81,5.92,3.56,14.14,5.31,23.67,2.31,12.53.27,24.84-6.25,35.72-8.97,14.97-22.34,26.4-39.22,32.17l14.22,7.56,3.95,1.81.34,4.73,5.37-2.65,33.12,16.85.04,35.67-3.96,2.34,3.93,2.2-.03,34.89-32.64,17.47-5.51-2.69-.19,5.07-33.82,18.39-33.74-18.3-.29-5.17-5.7,2.88-32.66-17.82.11-34.73c1.28-.77,2.42-1.22,3.64-2.45l-3.68-2.25-.06-35.36,32.73-16.94,5.37,2.43c.28.35.86.14.82-.34ZM173.46,17.1c-.11,1.73-1.66,3.14-3.01,4.42,3,.26,5.53-.86,8.09-1.51,5.26-1.33,10.63-1.28,16.11.71-2.1-2.62-5.34-3.66-8.47-4.41-3.91-.93-7.38-2.2-11.01-4.02-.95-.48-2.22,1.45-2.01,2.23.26.99.34,1.99.3,2.58ZM175.21,25.4c5.1-3.19,10.73-4.02,16.73-4.53-7.71-2.72-14.79,1.5-21.99,1.41l5.26,3.12ZM134.42,57.41c-4.5.72-8.74,2.16-12.78,4.16-4.56,2.26-9.05,5.08-12.31,9.44-.45.6-.64,1.48-.41,2.02.17.4.68,1.1,1.16,1.08,2.44-1.15,4.02-3.44,6.6-5.08-.4,1.61-1.98,2.27-2.94,3.6-.81,1.12-1.35,3.5-.07,4.35,1.4.94,2.96-.51,3.76-1.53l3.86-4.91.34.32-2.47,3.92c-.59.94-.3,1.66-.08,2.23.29.8,1.04,1.48,2,1.2,3.93-1.15,3.73-4.87,5.71-6.25l-1.27,3.13c-.27.66-.59,1.52-.49,2.1s.89,1.96,1.71,1.79c3.16-.65,3.61-4.49,5.75-5.97l-1.5,3.22c-.64,1.37.24,3.43,1.77,3.15,3.45-.63,4.3-5.16,5.29-5.53-.38,2.56-1.79,3.9-.32,5.28.86.81,1.81.53,2.8.18,2.14-.77,2.83-2.2,3.24-4.54.2,1.12.18,2.1.84,2.63,2.06,1.65,5.76-2.21,7.9-6.46-.53,5.22-3.26,9.93-7,13.74l-5.91,6.01,1.36,1.45c8.46-6.16,15.98-16.99,14.26-27.01-.59-3.44-2.99-5.87-5.93-6.9-4.74-1.66-9.92-1.63-14.89-.84ZM103.38,80.92l6.2-6.07-2.13-2.24-8.37,6.1c-4.85,3.54-9.63,7.02-13.73,11.73,5.92-.06,10.89-2.2,15.44-4.82.41-1.64,1.26-3.42,2.6-4.7ZM107.8,77.43c-3.89,3.24-8.24,8.86-5.07,10.22,2.9,1.25,4.18-3.58,9.44-7.58l2.46-1.87c-2.19-.69-2.8-2.26-2.33-4.52l-4.5,3.75ZM107.56,88.54c.95.77,3.29-.31,4.08-1.05l8.46-7.87c-1.55-1.07-1.72-2.24-1.87-3.99l-1.83,2-7.78,6.92c-.89.79-2.45,2.87-1.07,3.99ZM131.57,91.31c.04.6.7,1.32,1.11,1.3,5.34-.21,15.36-10.25,17.66-16.86-1.88,2.07-3.89,3.67-6.72,2.16-1.06,2.21-2.3,3.7-3.86,5.26l-8.18,8.14ZM118.4,88.62l8.83-8.99c-.98.07-1.57.09-2.15-.54-.38-.42-.63-.99-.87-2.06-3.55,3.44-11.67,9.73-11.82,12.14-.11,1.79,3.76,1.76,6.01-.54ZM133.16,80.39c.4.27.59.28,1.04.22l-8.95,10.31c.88,1.34,2.54,1.2,3.94.4,5.14-2.92,8.97-7.4,12.55-11.76-1.53.5-2.33,1-3.47.84-.91-.12-1.62-.87-2.01-2.26-1.22,1-2.14,1.48-3.1,2.24-.65-.43-1.62-.21-2.15-.61-.58-.45-.7-1.17-1.09-2.24l-10.57,11.53c-.44.48-.65,1.33-.36,1.7,2.98,3.71,10.57-5.88,14.17-10.38ZM99.84,87.05c-4.73,2.65-9.98,4.4-15.57,3.97-1.23,1.75-2.57,2.92-3.41,5.12,4.06.31,7.86-.54,11.15-1.9.73.09,1.36-.24,2.27-.56,4.19-1.46,8.29-2.81,12.02-4.88.17-.18-.3-.89-.55-.8l-1.18.42c-.69.25-1.7.34-2.42.05-.56-.23-.9-.91-1.3-2.06-.56.11-.75.49-1.02.64ZM94.29,94.62l-8.18,2.11c-1.73.45-3.67.33-5.69-.3l-4.83,5.68c3.72.53,6.75-.18,9.7-1.02,9.18-2.64,18.23-5.77,27.47-9.8-.99-.94-1.35-1.31-1.19-3.09-1.4,2.38-3.87.95-5.12,1.53-3.98,1.86-8,3.82-12.16,4.89ZM91.57,100.51c-4.53.07-10.09,3.62-16.39,2.11l-4.02,5.38c2.09,1.37,4.46.81,6.6.25l4.75-1.25c12.64-3.34,25.12-8.43,37.75-14.28-.97-1.04-2.11-.55-2.31-2.58-7.78,3.39-15.12,6.3-22.84,9.02-1.25.44-2.21,1.34-3.53,1.36ZM124.51,127.56l-6.11,1.22c.12,3.28,1.83,5.43,3.89,7.19l5.47,7.26c.49.62,1.43.83,1.95,1.84l17.79-8.91-18.17-9.33c-1.44-.55-3.52.46-4.81.72ZM118.09,131.62l-.81-2.52-4.96.57c.02,1.42,1.21,3.43,2.7,3.58.78-.49,1.69-2.13,3.07-1.63ZM104.15,135.45l-.61,1.49c-1.73,2.31-.07,5.04,1.65,8.07.56.99,1.03,2.45,2.27,3.14l7.46,4.1c2.44-1.84,4.75-2.97,7.28-4.27-3.43-.79-6.15.9-5.04-1.14,1.34-1.55,2.97-2.38,5.53-2.23l-2.07-3.48-5.58-5.65c-1.69-1.72-3.29-3.51-4.61-5.79l-2.2-.49-4.09,6.24ZM102.73,136.01l2.82-4.66c-1.65.37-3.02.39-4.63-.08-.95,1.11-1.58,2.18-1.83,3.46l3.64,1.28ZM119.53,134.57l-1.72-2.12c-1.63.47-2.29,1.51-1.47,2.81.68,1.08,1.54,1.23,2.84.67.32-.14,1.14-.32,1.13-.63,0-.18-.53-.44-.77-.73ZM102.45,136.74l-3.62-1.08c-.64-.19-1.47,1.35-1.21,1.92,1.92.57,4.06.72,4.84-.84ZM123.86,139.77l-2.75-3.59-2.96.94c1.29,1.24,2.53,2.35,3.5,4,.88-.28,1.42-.63,2.21-1.35ZM135.33,147.25l12.03-6.27c1.04-.54.91-2.39.34-3.03l-13.29,6.2c-1.13.53-2.26.87-2.87,2.29l3.79.81ZM99.72,141.97c.46-.65,1.39-.74,2.23-1.11.4-.18.42-1.48.19-2-1.23.32-2.26.46-3.89.18-.09,1.17.43,1.64,1.46,2.93ZM145.2,147.34c1.44,1.11,2.05,3.66,1.18,5.77-.8-1.49-1.33-3.08-3.34-3.48-1.19-.23-2.72,1.35-2.63,2.79-.78-.08-1.09.03-1.44.08-4.14.64-9.15-.72-10.2-.67-1.97.09-3.83,1.56-5.64,2.52,9.96,4.65,19.11,9.44,28.53,14.52,1.25.67,2.39,1.21,3.78,1.43l30.37-15.71-17.75-9.07-13.05-6.66-16.02,8.07c-.45.22.18,1.03.64.62.18-.16,4.11-1.33,5.58-.2ZM134.35,147.87c-2.76.27-4.16-.93-5.72-2.47l-3.39-3.33c-.37-.37-.68-1.57-1.51-1.34-.43.12-1.08.6-1.2,1.17s.55,1.08.91,1.56l4.3,5.84c1.69,1.37,4.04,1.62,6.26,1.53-.18-1.25-.08-1.65.35-2.96ZM104.18,144.91l-1.57-2.83c-.41-.74-1.69.1-2.03.6-.77,1.13,1.42,3.87,2.37,3.6.53-.15,1.63-.63,1.22-1.36ZM125.05,146.79c-1.77-1.39-4.39-1.59-5.93-.1,3.52-.94,5.17,1.69,5.93.1ZM106.4,149.23l-1.84-2.85-2.15.81,1.81,2.99c.78-.2,1.37-.42,2.17-.95ZM144.16,148.04s-.1-.16-.25-.27c-.69-.03-1.44-.15-2.13.18,0,.03.1.16.25.27.69.03,1.44.15,2.13-.18ZM122.72,152.53c.73.7.86-.09.78-.34-.06-.2.65-.14.73.27-.03-.78.43-1.11.91-.56.68-.8,1.31-1.09,1.67-2.2-.73-.37-1.32-.47-1.75-1.54l-7,3.14c-.73.33-1.23,1.07-1.56,1.52-.21.28.44,4.14.65,4.25.38.21,1.09.12,1.43-.35-.06.76.44,1.06.92.46.2.88.68.94,1.13,1.13,2.41,1.04-.04-3.3,2.09-5.77ZM138.07,149.14c-.43.05-1.33.5-1.23,1.13.14.85,1.43,1.7,2.28,1.53-.58-1.17-1.06-1.8-1.05-2.66.69-.09,1.2.41,1.61,1,.39-.41.32-.98.22-1.2-.13-.29-.89-.34-1.31-.3-.38-.96-1.52-.22-.52.5ZM135.79,149.22c.66-.46-.16-.88-.36-.53-.11.2-.34.39-.26,1.23.31.27.74-.14.63-.7ZM114.99,154.08c-.64-.83-1.64-.44-2.24-.84l-4.86-3.28c1.62,4.67,4.85,10.84,5.69,7.82.67.22.84.16,1.2-.1.75-.56.78-2.87.22-3.6ZM108.01,155.36c-.95.7-.29.9-.02,1.17.4.4.92.33,1.16.14.45-.34.4-.86.13-1.16-.35-.4-.81-.5-1.27-.16ZM76.03,205.23l.06-33.18-30.96-16.53v33.16s30.9,16.54,30.9,16.54ZM140.55,168.12c.35.79.77.82.96.93l8.29,4.83-.04,28.9,2.04.76,2.5,1.44.05-22.97-.05-10.32-20.91-10.59c-3.17-1.61-6.11-3.52-9.67-4.83-.31,2.95.07,4.7,1.41,3.79.24,1.09,1.36,1.9,2.51,1.51-.25.74.48.96.77.34.26,1.19,1.66,2.04,2.94,1.47-.23.63.27.94.66.58l5.13,3c.83.48,1.88,1.8,3.4,1.18ZM175.73,194.71l10.94-5.77-.11-33.07-30.88,16.06.07,33.42,19.98-10.64ZM111.24,159.34c-.02-.45-.4-1.22-.88-1.8-.39-.47-1.41-.36-1.75-.04-.4.37.4,2.65.94,2.65.29,0,.67-.28,1.69-.81ZM124.61,163.52l3.17.08-10.82-5.33-3.89,2.34c2.43,2.94,7,3.31,11.55,2.92ZM115.59,167.74l1.32-3.5c-4.32-1.5-4.4-4.42-6-3.72-.6.26-1.26.45-1.23,1.11.01.29.24.65.6,1.08l-6.09,1.22c-.7.14-.85,2.19-.17,2.28l11.57,1.53ZM102.49,165.93c.42-.76-.29-2.88-1.18-2.99-1.63-.2-2.91,1.51-3.84,2.73l5.03.26ZM121.06,168.45l1.01-3.34c-1.25-.51-2.36-.7-3.76-.82l-1.33,3.36c1.48.53,2.67.72,4.09.8ZM124.53,164.82c-1.46-.21-2.37,1.6-2.35,3.67,1.47.4,2.4.37,2.78-.14.51-.69.29-3.43-.43-3.53ZM127.48,168.92c1,.11,1.35-2.17.91-2.72-.51-.65-1.14-1.67-2.33-1.17-.06,1.07-.34,3.7,1.42,3.89ZM131.48,166.05c-.53-.84-1.32-1.3-2.44-1.29.53.84,1.32,1.3,2.44,1.29ZM146.07,173.49l-7.46-3.87-.06,4.22c-.22.32-1.02-.27-1.07-.76-1.07-1.79-2.52-3.46-4.5-4.49-.13,1.01.77,1.08,1.34,1.46l-2.1,2.72c-1.59-1.71-3.6-2-5.72-2.24l-11.2-1.24-13.41-1.63c-1.66-.65-3.48-.46-5.25.4l-12.98,6.25,15.88,8.2,16.44,8.65,21-11,10.67-5.78c-.67-.76-1.25-.71-1.59-.88ZM131.53,170.26c.39-.49.27-1.64.13-2.3-.09-.44-1.07-.99-1.49-.83-.71.26-.91,1.52-.6,1.96.26.37.86.64,1.96,1.17ZM136.91,170.39c.58-1.27-.44-2.49-1.77-2.33.73.83,1.38,1.37,1.77,2.33ZM115.07,225.16l.07-32.75-31.27-16.35-.16,32.56,31.36,16.55ZM148.29,208.61l-.22-32.44-8.64,4.55-22.66,11.58v33.16s31.53-16.85,31.53-16.85ZM80.26,208.79c2.23-.41,2.53-2.13,1.63-4.39l-5.15,2.72c-5.84-2.44-11.1-5.67-16.73-8.6l-9.02-4.7c-.65-.34-1.49-.91-2.07-.76-.62.16-1.45.52-1.78,1.43l19.6,10.67c.41-.69,1-.19.79.45,2.36,1.44,5,1.9,6.79,3.39,1.17.98,2.36,1.59,3.63.93.63-.33,1.57-1,2.31-1.14ZM154.86,210.5l13.87-7.58,16.01-8.41c-.36-.89-1.26-1.46-2.09-1.55l-27.19,14.34-5.64-2.74.07,3.39,4.97,2.55ZM76.05,244.83l.03-33.09-30.85-16.3-.13,32.77,30.95,16.61ZM155.78,244.72l30.95-16.5-.02-32.75-12.22,6.18-18.73,10.12.02,32.95ZM82.26,242.04l.09-27.95c.3-.48,1.29-1.11,1.72-1.24.53-.19,1.1-.39,2.29-.51-.93-1.5-2.08-1.72-3.36-2.78-1.92.47-3.97,1.39-5.57,2.72-.33,3.61.04,6.97.05,10.41v15.72s.15,6.06.15,6.06c1.87-.83,3.16-1.34,4.63-2.42ZM154.35,244.06l-.09-19.92.02-12.08-4.7-2.56c-.97,1.05-2.14,1.52-3.75,2.42,1.14.94,2.4,1.35,3.94,1.82v28.42c1.66.71,2.84,1.7,4.57,1.92ZM96.73,220.15l19.63,10.43c4.79-3.35,9.87-5.49,14.94-8.16l15.24-8.02c-.47-.57-1.59-1.64-2.48-1.42l-26.88,14.11c-1.77.93-3.07-.37-4.57-1.16l-24.4-12.94c-.95.42-1.64.64-2.55,1.47l11.06,5.7ZM115.09,264.95l.03-33.28-31.39-16.44-.09,32.89,31.45,16.83ZM148.23,248.01l-.1-32.77-15.83,8.19-15.61,8.3.11,33.38,31.43-17.1Z"/>
      <path class="cls-53" d="M107.97,54.78l-21.95,24.43-6.92,8.21-11.52,11.07c-3.62,3.47-7.26,7.29-8.97,12.1-.58,1.63-.9,2.81-2.78,3.39-2.68.83-3.42,3.32-4.01,5.3l-12.79,7.91c-4.58,2.83-8.79,5.48-12.99,8.5-.15-10.09,1.09-19.68,3.66-29.37,1.13-4.24,2.11-8.61,3.77-12.22,1.19.98,2.7,1.12,4.03.34,1.26-.74,1.93-2.33,2.25-4.27l8.75,4.4-12.69,11.79c-.42.51.34,1.24.84.79l11.63-10.46.43,8.24h.75s.35-9.71.35-9.71l8.07,4.25c.36.19.89.53,1.28.45.29-.06.71-.67.6-1.07l-8.96-4.8,8.5-8.56c.14-.14-.17-.55-.3-.62-.2-.1-.66-.15-1.03.2l-8.07,7.76-.42-14.33-.83-.18-.72,10.6c-2.59-1.14-3.01-3.51-3.89-5.71l-.36-.9c-.08-.2-.67-.24-.89,0-.57.59,1.41,6.72,5.42,8,.34.68.27,1.92.1,2.57l-7.47-3.72c-2.14-1.06-4.59-1.53-6.4-3l.27-.91c.03-.14.55-.04.7-.02.53.07.95-.79,1.11-1.32l2.02-6.53c10-7.11,20.62-12.97,32.15-17.07,1.73-.61,3.2-1.08,4.94-.99l-4.94,5.89,12.25.14c.41,0,.52-1.47.2-1.57l-9.66-.05,5.19-5.67c1.1,1.03,1.68,1.84,3.14,2.43.3-1.14-.6-1.72-1.16-2.45.97-.82,2.01-.91,3.29-1.11,8.09-1.22,16-2.39,24.04-2.14Z"/>
      <path class="cls-35" d="M200.23,109.64c-1.4,1.3-2.52,2.87-2.63,5.14l-12.65.06-.05-6.52c0-.39-1.26-.55-1.28-.08l-.22,6.69-4.89-.08-.08-13.11c0-.38-.52-.55-.7-.53-.36.02-.88.25-.88.9l.02,12.95-7.32.12c-.47,0-.8.1-.99.35-.24.31-.01,1.05.65,1.06l7.59.06.27,8.55c.01.34,1.13.29,1.24.08.13-.24.34-.46.34-1.04l-.06-7.58,19.19-.13c.87,3.06,3.11,4.45,5.62,5.3l-.36,1.05c-1.91.32-1.9,4.06-4.92,7.36-.8.87-1.7,1.33-1.17,2.7l-3.39.48-25.86.11c-.58,0-.72,1.02-.61,1.3.07.19.06.66.64.66l6.91.05c.12-.26.51-.84.69-.84l19.3-.02c.08.28-.11.88-.36.88-.24,0-.52.08-.77.34-1.05,1.05-1.56,2.52-.52,3.47.48-.26.95-.46,1.16-.32.28.19.46.69.35.92-.07.15-.31.56-.59.74-2.17-.1-4.35.45-5.36,2.54-.13.27.38.7.64.71.32.02.94.01.99-.86.59.03,1.36.82,2.32-.05l.2,2.26c.55-.03,1.14.5.98.79l-.63,1.2.57,1.15c.08.16-.51.53-.47,1.35.68-.53,1.2-.6,1.87-.08,1.64,1.25.8-1.62,1.65-1.86.24-.06.9.45,1.06.26.52-.62,2.03-2.17,2.72-1.46.74.76,1.19,2.04.72,2.8,1.32,1.37,1.82,3.15.4,5.13l.98,1.16c-2.4.86-4.44,2.55-5.33,5.18-1.63,4.87-.39,9.86,2.91,13.37-2.56,6.89-4.57,13.47-8.66,19.7l.03-39.62c0-1.7-.03-2.41-1.76-3.28l-31.45-15.9c.63-1.01,1.55-1.94,1.65-3.15l.51-6.01c.6-.38,1.93-.86,1.94-1.35l.05-2.26c.01-.63.96-.78.87-1.27s-.48-.82-1.3-.71c.1-4.16,2.24-7.83.76-11.47,9.22-9.65,16.44-22.02,17.76-35.55,8.95,10.48,15.66,22.88,19.72,36.26ZM187.07,117.7c-.72.88-.15,1.82.6,1.87.6.04,1.21-.13,1.46-.49.43-.62.27-1.36-.12-1.52-.53-.21-1.64-.22-1.94.15ZM174.74,130.37c.38-.06.19-1.37-.16-1.51-.28-.12-.56-.31-1.26-.28l-6.18.26c-.51.02-.48,1.57.01,1.61,2.63.2,5.03.29,7.59-.08Z"/>
      <path class="cls-16" d="M107.97,54.78c-8.04-.25-15.95.92-24.04,2.14-1.28.19-2.32.29-3.29,1.11-1.67-2.2-3.64-3.75-5.78-5.8l8.18-.24c.44-.37.28-1.54-.12-1.53l-11.74.3c2.43,2.26,4.53,4.03,6.54,6.42-.33.86-1.51,1.4-2.11,2.15-1.74-.09-3.21.37-4.94.99-11.53,4.11-22.15,9.96-32.15,17.07l-2.02,6.53c-.17.54-.58,1.39-1.11,1.32.07-2.69,1.92-4.46.81-7.07,1.49-1.48,2.78-3.18,3.86-4.87,5.83-9.09,12.55-17.18,20.82-24.31-1.42-.62-2.4-1.36-2.01-2.4,6.72-4.04,13.6-7.69,21.31-10.58.26-.1.66.74.48,1.16,3.4-2,6.81-3.12,10.66-3.96,11.01-2.4,22.19-3.55,33.33-2.16.11,2.45.4,4.42,1.24,6.48-4.48,3.71-8.39,7.34-12.31,11.41l-5.61,5.83ZM61.03,50.41l10.51-8.51c-3.76,1.14-6.13,3.83-9.01,5.93-.94.52-2.05,1.16-1.51,2.58ZM62.9,58.89l-.97-2.04c1.25-1.11.96-3.03-.15-3.62-.61-.33-1.58-1.89-2.34-1.61-7.39,6.79-13.5,14.32-18.99,22.92,8.2-5.23,16.04-9.78,24.8-13.11l-1.68-.88c-.5-.27-.38-1.05-.67-1.66Z"/>
      <path class="cls-34" d="M35.4,85.25c-.15-.02-.67-.12-.7.02l-.27.91c-.39-.32-3.58-1.89-4.62-1.25l4.85,2.42c-1.43,1.69-1.57,3.95-2.31,6.15-4.55,13.54-7.2,27.3-7.43,41.58l-12.28-2.96c-.01.09-.17.31-.31.42l10.99,3.28c.26.08.74.24.84.41s.02.44-.13.71l-16.9,11.72c-2.77-27.19,5.33-53.5,21.7-74.81,8.43-10.97,18.44-20.28,30.05-27.26-.39,1.04.58,1.78,2.01,2.4-8.27,7.13-14.99,15.22-20.82,24.31-1.08,1.69-2.38,3.39-3.86,4.87,1.11,2.61-.74,4.38-.81,7.07ZM10.96,130.52c1.74-11.4,5.53-21.93,10.8-32.14l7.71-13.3c.01-.88-1.04-.91-.99.16-9.73,14.29-16.43,30.08-18.62,46.93-.05.4,1.82.36,1.67-.17-.07-.27-.71-.59-.58-1.48Z"/>
      <path class="cls-126" d="M225.24,142.56c-1.27-.68-3.87,2.31-3.85,3.15.06,2.07-1.92,3.42-3.52,2.64-1.44-.71-2.92-.61-3.66-2.66-1.44.52-1.96,1.57-2.72,2.61-.29.4-4.38,2.9-6.21,2.83l.23-16.84,14.52-1.65-.02-.75-7.53.33c-1.58.07-4,.48-5.84.22-.28-.04-.35.56-.68.6s-.72.02-.72-.15v-1.12c-.45-1.58.14-3.02-.05-4.32,3.41.24,6.86-.63,5.97-2.66-.44-.99-1.34-1.41-2.19-1.26-.81-.87-.41-1.6-.89-2.34,2.44-1.04,4.33-3.33,4.46-5.74.16-2.97-1.58-5.42-4.24-6.45-1.74-.67-3.42-.9-5.29-.41.08-.47-.06-.86-.49-.96l1.46-3.48c.19-.46.83-.65.91-.91-.1.3-.46-3.38-2.06-3.22.86-.17,1.05-.76,1.17-1.31.07-.33.55-.86-.28-1.18-.38-.15-1.17.07-1.49-.5-.24-.43.16-.9.16-1.57l-.03-3.02c-.72-.67-1.1-1.7-1.11-3.12l-3.61-2.63c1.31-1.61.66-3.84-.44-4.55-1.38-2.01-.56-3.72-1.16-3.84l-1.49-.29c.25-.57.87-1.31.82-1.98-.04-.53-1.16-.76-1.52-1.05-.22-.99.15-2.27.4-3.39.23-.28.93-.55.52-1.12-.26-.36-.33-.98-.93-.81-.39.12-1.08,1.36-1.94,1.42-.47.03-.83-.41-.71-.75l.38-1.13c.26-.76.48-1.84.41-2.35-.29-2.08-2.67-3.09-4.16-4.15-2.03-1.44-3.64-2.99-5.82-3.8-.71.53-1.44.24-1.96.37-.56-3.33-1.14-6.47-2.46-10.15,30.16,20.62,49.34,56.5,47.66,93.43Z"/>
      <path class="cls-39" d="M225.24,142.56c-.64,14.17-3.93,27.87-10.13,40.88-5.83,12.24-13.26,23.38-23.47,32.74l-.15-19.95c4.38-6.64,6.77-13.8,9.6-21.39,3.36,1.67,7.52,1.29,9.7-1.82,2.05-2.92,2.07-6.67,1.45-10.05-.69-3.81-3.19-6.83-7.28-7.5l.37-3.5-.04-.83c1.83.07,5.92-2.43,6.21-2.83.76-1.05,1.29-2.1,2.72-2.61.73,2.05,2.22,1.95,3.66,2.66,1.61.79,3.59-.56,3.52-2.64-.03-.85,2.57-3.84,3.85-3.15Z"/>
      <path class="cls-78" d="M130.59,101.9c-4.73,3.16-9.68,6.17-14.83,8.64-11.29,5.42-23.32,9.11-36.16,11.39,2.34,3.38,12.69,3.77,17.17,3.07.18-.03.77-.34,1-.25.17.06.4-.3.13-.57,1.68-.5,3.14-1.29,4.89-1.54.15.23.23.47.19.69-1.58-.14-2.99,2.12-5.83,2.81-.62.15-.74.88-1,1.37-.59,1.12-.93,2.31-1.07,3.56-1.38-.45-3.66.22-4.11,1.65l-1.3.4c-.35-1.27-2.35.95-5.16,1.68-.46.12-.93.63-.97.94-.03.23.56.9.36,1.03-.47.33-.8.91-.54,1.34.13.21.46.36.78.17l.27,2.35,11.66,6.25,5.32,2.47c.69.32.82.82,1.57,1.55-1.39.12-1.51-.32-1.72.32l-19.17-9.64c-.07-.48-.42-.93-.28-1.41.82.48,1.26-.22,1.14-.57-.06-.16-.1-.26-.37-.27l-.3-4.45,11.43-5.15.97-2.76-14.49.09c-2.24.01-3.58.77-5.42,1.61l-17.19,7.82c-7,3.19-13.53,6.58-20.64,9.47-1,.41-2.32.45-3.18.51-3.76,2.94-7.9,4.54-12.17,6.26-3.21,1.3-6.1,2.46-9.86,2.27l-6.87,3.02c-1.54.68-3.09,1.48-4.84-.05l12.85-9.35c8.89-6.47,17.56-12.5,26.91-18.18l14.25-8.65c.53.3.93-.03,1.26-.25,2.64-1.74,5.77-2.62,7.96-5.02.45,0,.73.23,1.04.61-1.61,1.66-2.86,3.59-3.86,5.89,2.72.62,5.1.18,7.55-.62l18.78-6.15.17,1.05c-1.25.51-2.64,1.2-3.54,2.47,13.21-2.87,25.79-7.18,37.27-13.82l9.87-5.71c.59.59.36.9.08,1.64ZM24.47,149.78c3.87-1.38,6.16-3.91,9.05-6.32l12.29-10.25,12.29-9.8c-1.74-.31-2.38,1.38-3.49,2.07-7.04,4.39-13.49,8.92-20.27,13.67l-20.21,14.13c3.78-.31,6.81-2.23,10.33-3.49ZM16.28,150l22.55-15.79,14.09-9.69c-14.5,8-27.69,17.65-41.3,27.1l-7.31,5.08c4.48-1.45,7.99-3.92,11.97-6.7ZM42.88,137.4l-8.88,7.08c1.52.61,2.88-.34,4.27-.96,4.28-1.9,8.37-3.61,12.27-5.72,6.78-3.67,13.1-8.11,19.43-13.01-4.23.78-8.5,3.09-11.44.7l-5.36,4.24c-3.45,2.72-6.98,5.03-10.29,7.66Z"/>
      <path class="cls-165" d="M202.53,107.63l-.09.94-2.21,1.07c-4.05-13.39-10.76-25.79-19.72-36.26.46-4.67.29-9.49-.48-14.09.52-.13,1.26.16,1.96-.37,2.19.81,3.8,2.36,5.82,3.8,1.48,1.06,3.86,2.06,4.16,4.15.07.51-.15,1.59-.41,2.35l-.38,1.13c-.11.34.24.78.71.75.85-.06,1.54-1.3,1.94-1.42.59-.17.67.44.93.81.41.57-.29.84-.52,1.12-.25,1.12-.62,2.4-.4,3.39.36.29,1.47.53,1.52,1.05.06.66-.56,1.4-.82,1.98l1.49.29c.59.12-.22,1.83,1.16,3.84,1.1.71,1.76,2.94.44,4.55l3.61,2.63c.01,1.42.39,2.45,1.11,3.12l.03,3.02c0,.68-.4,1.14-.16,1.57.31.57,1.1.35,1.49.5.84.32.36.85.28,1.18-.12.55-.31,1.14-1.17,1.31,1.6-.16,1.96,3.52,2.06,3.22-.08.25-.72.45-.91.91l-1.46,3.48Z"/>
      <path class="cls-77" d="M35.31,177.81l3.73,7.75c.34.72.59,1.31,1.4,1.41l-.08,29.32c-8.66-8.44-15.47-17.51-20.69-27.62l2.96-2.17c.34-.25.64-.61,1.25-1.02s1.43.92,1.53,1.55c1.3.27,2.6-1.26,3.09-2.4l.51-1.21c.26-.62,1.06-.3,1.45-.1,2.67-1.55,3.17-6.52,4.85-5.51Z"/>
      <path class="cls-180" d="M28.43,159.06l3.61,11.26-2.7,1.92c-1.19.9-3.82,2.62-3.48,3.52.13.35.46.74.97.81-.36,1.44-1.03,3-.59,4.47.71,2.36-4.69,3.34-3.6,5.46l-2.96,2.17c-3.68-7.13-6.62-14.46-8.9-22.08,2.13.64,3.88-1.32,6.29-3.23.44-2.86,2.99-4.25,5.56-3.39.51-.85,1.93-2.09,2.72-1.69,1.14.58,2.11,1.5,3.09.78Z"/>
      <path class="cls-42" d="M40.41,155.4c-.88.29-1.86.5-2.9.32-.82,3.25-2.03,4.1-2.04,4.15-.23,1.29,1.37,2.24,2.29,2.56l-2.49,4.54c.22.29.47.66.48.81.02.17-.38.51-.45.65-.2.67.47,1.1.71,1.44-.41.88-1.35,1.36-2.17,2.06-2.01-4.23-3.06-8.85-4.31-13.37-.27-.96-.33-2.52-.97-3.35-.83-.39-1.29-.84-1.5-1.62l7.93-3.8c3.99-1.32,7.47-2.71,11.22-4.49l28-13.31c3.39-1.61,6.76-2.42,10.7-2.02-1.75,1.67-4.91,1.48-6.09,4.86-1.39-1.01-2.57-.94-3.88-.26l-22,11.37-12.32,6.08-.22,3.38Z"/>
      <path class="cls-20" d="M158.28,135.15c-1.69-.86-3.05-1.46-5.31.14-.22-1.72-1.15-2.34-2.34-2.96l-11.73-6.04c8.8-4.34,17.01-10.21,23.85-17.37,1.49,3.64-.66,7.31-.76,11.47.82-.11,1.21.21,1.3.71s-.86.64-.87,1.27l-.05,2.26c0,.48-1.34.97-1.94,1.35l-.51,6.01c-.1,1.21-1.02,2.14-1.65,3.15Z"/>
      <path class="cls-105" d="M231.09,140.42c-1.41-.38.07,1.48-1.01,2.19-.25.17-.62.03-1.03-.24,1.7-38.98-19.09-76.9-51.6-97.96-1.57-1.02-3.02-2-2.34-4.05,35.02,20.8,56.95,59.65,55.98,100.06Z"/>
      <path class="cls-2" d="M46.8,50.39c-9.97,7.44-18.22,16.9-25.35,27.38-5.56,8.18-9.69,16.78-12.97,26.11-5.16,14.67-6.69,30.15-5.21,45.71.12,1.25-.15,2.33-1.68,2.2-2.09-18.59-.08-37.43,7.2-54.81,7.82-18.68,20.27-35.29,36.03-47.73.75.18,1.69.35,1.97,1.13Z"/>
      <path class="cls-110" d="M231.09,140.42c-.76,31.66-15.25,62.89-39.45,83.89-.4-.91-.25-1.73-.05-2.79,22.38-20.73,36.12-48.5,37.46-79.15.41.27.77.41,1.03.24,1.08-.71-.4-2.57,1.01-2.19Z"/>
      <path class="cls-121" d="M46.8,50.39c-.28-.78-1.23-.95-1.97-1.13,22.21-17.53,50.11-26.35,78.52-24.39.75.05,1.16.18,1.32.45.2.35.23.87-.05,1.72-19.63-1.63-39.11,2.18-57.13,10.68-7.52,3.55-14.25,7.86-20.69,12.66Z"/>
      <path class="cls-113" d="M204.13,151.9l-.2,3.37c-.55.44-1.02.31-1.4.44l-.98-1.16c1.42-1.97.92-3.75-.4-5.13.47-.76.02-2.03-.72-2.8-.69-.71-2.2.84-2.72,1.46-.16.19-.82-.32-1.06-.26-.84.23,0,3.11-1.65,1.86-.67-.51-1.19-.44-1.87.08-.04-.83.55-1.2.47-1.35l-.57-1.15.63-1.2c.15-.29-.44-.82-.98-.79l-.2-2.26c-.95.87-1.72.08-2.32.05-.05.87-.67.88-.99.86-.26-.02-.77-.44-.64-.71,1.01-2.09,3.19-2.63,5.36-2.54.28-.18.52-.59.59-.74.11-.23-.08-.73-.35-.92-.21-.15-.68.06-1.16.32-1.04-.95-.53-2.42.52-3.47.26-.26.53-.33.77-.34.25,0,.45-.6.36-.88l9.77-.27-.25,17.5Z"/>
      <path class="cls-28" d="M204.35,121.73l.85,5.72c.19,1.3-.41,2.75.06,4.32v1.12c-.01.17.37.2.71.15s.4-.64.68-.6c1.84.26,4.27-.15,5.84-.22l7.53-.33.02.75-14.52,1.65-.23,16.84.04.83-1.2-.07.25-17.5-9.77.27-19.3.02c-.18,0-.57.58-.69.84l-6.91-.05c-.57,0-.57-.47-.64-.66-.11-.28.03-1.3.61-1.3l25.86-.11,3.39-.48,7.03.16c.76-1,.64-2.94-.56-3.56.55-2.16.62-4.11.26-5.79-.77.12-.79-.52-.63-.87l.36-1.05c.31.1.65,0,.96-.08Z"/>
      <path class="cls-56" d="M209.42,172.28c-1.75,2.77-5.44,2.31-7.75.83l1.39-6.53c.66-3.09,1.41-6.03,1.5-9.32,2.44-.11,4.36,1.59,5.37,3.85,1.5,3.36,1.63,7.81-.51,11.18Z"/>
      <path class="cls-154" d="M29.52,158.56c-.25.01-.63,0-.84.06-.15.05-.25.27-.25.45-.98.72-1.96-.2-3.09-.78-.79-.4-2.21.84-2.72,1.69-2.57-.86-5.12.53-5.56,3.39-2.41,1.92-4.16,3.87-6.29,3.23l-1.97-6.56c.71-.78,1.88-1.95,3.06-1.93,5.7.1,10.46-2.25,15.18-4.52.21.78.67,1.23,1.5,1.62.63.82.7,2.39.97,3.35Z"/>
      <path class="cls-109" d="M14.94,192.04c.49-.5.68-1.09,1.38-1.53,6.1,11.42,14.2,21.89,23.93,30.96.69.64.52,2-.17,2.49-10.27-9.28-18.7-19.98-25.15-31.92Z"/>
      <path class="cls-127" d="M40.44,166.32l-.13,18.29c-.29.03-.45.02-.55-.19l-5.94-12.5c.82-.7,1.75-1.18,2.17-2.06,1.63-.33,3.6-1.23,3.6-1.19l.07-1.18c.03-.42-.03-1.04.28-1.19.14-.07.33-.12.5,0Z"/>
      <path class="cls-45" d="M16.32,190.51c-.7.44-.89,1.03-1.38,1.53-4.96-9.19-8.75-18.94-11.37-29.22-.19-.76-.02-1.13.52-1.51.38-.27.77-.37,1.04.08.25.41.35.8.47,1.25,2.58,9.82,6.06,19.13,10.73,27.86Z"/>
      <path class="cls-170" d="M35.46,88.05c-1.15.88-1.95,2.69-1.97,4.13l-.03,1.93c-1.66,3.62-2.65,7.98-3.77,12.22-2.57,9.69-3.81,19.28-3.66,29.37-.36.72-1.35.81-1.99,1.25.16-.27.23-.55.13-.71s-.58-.34-.84-.41l-10.99-3.28c.13-.11.3-.34.31-.42l12.28,2.96c.23-14.28,2.88-28.04,7.43-41.58.74-2.2.88-4.46,2.31-6.15l.81.71Z"/>
      <path class="cls-184" d="M40.41,155.4l.04,10.92c-.17-.13-.35-.08-.5,0-.31.15-.26.77-.28,1.19l-.07,1.18s-1.97.85-3.6,1.19c-.24-.35-.91-.77-.71-1.44.08-.14.47-.48.45-.65-.02-.15-.26-.51-.48-.81l2.49-4.54c-.92-.32-2.52-1.27-2.29-2.56.01-.06,1.22-.91,2.04-4.15,1.04.18,2.02-.04,2.9-.32Z"/>
      <path class="cls-128" d="M200.32,172.16c-3.92-5.06-2.48-14.43,3.27-14.95-.73,5.09-1.73,9.92-3.27,14.95Z"/>
      <path class="cls-88" d="M29.52,158.56c1.25,4.52,2.3,9.15,4.31,13.37l5.94,12.5c.1.21.25.21.55.19.56.67.14,1.55.14,2.36-.81-.1-1.06-.7-1.4-1.41l-3.73-7.75-3.27-7.49-3.61-11.26c0-.17.1-.4.25-.45.2-.07.58-.05.84-.06Z"/>
      <path class="cls-122" d="M62.68,113.42c-.04-.33-.31-.74-.51-.92l3.9-1.5c-.72,1.6-2.25,1.71-3.39,2.42Z"/>
      <path class="cls-101" d="M174.16,26.33c-.02,1.23-6.04,5.6-6.96,10.81l2.39-2.96c-.54,4.54.53,8.5,2.19,12.43,1.75,4.13,2.81,8.19,3.51,12.29-.31.06-.67.04-.8-.09-.14-.14-.2-.59-.34-.89-1.91-3.84-4.48-6.92-7.27-10.18l1.29,11.53c-.49.23-1.61.5-1.74,1.03-.7,3.21-.85,6.37-2.86,9-.19-2.05.39-3.74-.59-5.58l-4.36,12.41c-1.89,5.39-3.67,10.58-6.53,15.61l-2.93,6.6,6.78-4.89c-2.41,5.52-6.14,9.48-9.39,14.18,2.87-.35,4.28-2.12,6.76-3.14-.63,2.5-2.59,4.04-4.32,5.76-2.45,2.45-4.67,4.96-7.46,6.64-.36-.31-.6-.43-.96-.37-5.22.89-10.31,1.67-15.88,1.06l6.92-4.95c-3.85.7-6.79,2.21-10.64,2.1l7.06-6.17c3.71-3.25,7.54-6.16,10.97-9.73l4.6-4.78c2.4-2.49,4.36-4.76,5.92-7.49,2.84-4.97,6.14-9.81,6.58-15.99.32-4.43.25-7.83-3.04-11.25.94-1.54-1.26-4.89-3.26-6.98.33-.2,1.01-.64.89-.84s-.76-.72-.26-1.3c1.19.78,2.27,1.81,3.65,2.44l4.02,1.84c-.7-2.31-2.21-3.12-3.03-4.7,1.01.08,1.96.1,2.34-.46-1.18-2.92-3.84-4.9-6.31-6.43-1.35-2.44-1.15-5.55-.08-8.28,1.02,1.83,1.12,3.36,2.36,4.52,1.15-3.16,1.07-.45,3.79,2.82.72-1.37,1.34-2.17,2.48-3.01.22,1.06,1.59,1.71,1.9,1.19.55-3.57,1.02-7.52,3.56-9.8,2.01,2.26,4.81-2.14,9.07-3.99Z"/>
      <path class="cls-176" d="M175.3,58.9c2.02,11.98-.28,23.67-6.71,34.33-8.28,13.73-20.91,24.37-35.7,29.8-.2-.33-.18-.8-.03-.89l1.02-.66,7.65-4.6c2.79-1.68,5-4.2,7.46-6.64,1.73-1.73,3.69-3.26,4.32-5.76-2.48,1.02-3.89,2.79-6.76,3.14,3.26-4.69,6.98-8.66,9.39-14.18l-6.78,4.89,2.93-6.6c2.86-5.03,4.64-10.22,6.53-15.61l4.36-12.41c.98,1.84.41,3.52.59,5.58,2-2.63,2.15-5.79,2.86-9,.12-.53,1.25-.81,1.74-1.03l-1.29-11.53c2.8,3.26,5.36,6.35,7.27,10.18.15.3.21.75.34.89.13.13.49.14.8.09Z"/>
      <path class="cls-151" d="M147.41,2.72c-.05.41.17.55.35.52.28-.05.7-.27,1.2.03.77-.65,1.67.16.95.85-2.7.96-5.93,2.07-6.9,3.24-4,2.73-7.18,7.24-7.93,12.6,1.83-.91,2.17-2.75,4.11-3.57-1.61,6.38-1.37,12.68,1.97,18.18.69-1.45-.04-2.72,1.48-3.9l1.29,5.61.38-3.17c.05-.43.38-.97.59-1.14.23-.18.88-.07,1.12.05-.84,2.61,2.73,9.43,5.07,10.88,2.47,1.53,5.13,3.51,6.31,6.43-.37.55-1.33.54-2.34.46.81,1.58,2.33,2.4,3.03,4.7l-4.02-1.84c-1.37-.63-2.46-1.65-3.65-2.44-.5.58.14,1.1.26,1.3s-.55.64-.89.84c2,2.09,4.2,5.44,3.26,6.98-2.7-2.27-6.23-2.62-9.62-3.13-2.91-.44-5.56-.08-8.19.27-.21-1.01.25-2.03.57-3.34-2.53-.42-3.95.91-6.33,1.79.39-1.67,1.01-2.69.21-3.89-1.12.83-1.57,1.87-2.77,2.1-.16-1.73,1.54-2.83,1.99-4.13-.25-.98-1.59-.3-2.34.22l-4.16,2.89c-.72-1.09-.26-1.76.6-2.75-1.1.24-1.92.43-2.54-.45l7.11-6.63c2.95-2.75,4.22-6.29,4.83-10.29l-2.3,2.1c-1.62-5.77-.69-11.09,1.14-16.36,2.62-7.53,8.52-13.22,16.15-15Z"/>
      <path class="cls-148" d="M138.97,152.5c.34-.05.66-.16,1.44-.08-.09-1.43,1.44-3.02,2.63-2.79,2.01.39,2.54,1.99,3.34,3.48.87-2.11.26-4.66-1.18-5.77-.05-.22.02-.8.37-.97l8.74-4.31.39,5.28.69-5.72,20.17,10.7c.8.42,1.64.86,2.47,1.08.54.17,1.59.71,1.97,1.31l-16.45,8.66-7.95,4.49c-.31-.92-1.11-1.02-1.38-.04l-14.93-8.14c-3.24-1.76-6.66-2.66-9.7-5.37l3.7-.98,5.68-.84Z"/>
      <path class="cls-82" d="M141.53,116.89l-7.65,4.6-1.02.66c-.15.09-.16.56.03.89-3.89,1.76-8.22,2.65-12.72,3.61l-5.24,1.12,1.35-3.99.97-3.28-1.97-1.07c.42-.58,1.14-1.68.67-2.61-3.22,3.91-5.62,7.85-9.25,11.08-1.08-2.28.6-3.47,1.11-5.59-2.9,1.32-3.55,5.03-1.73,7.41-1.54,1.29-3.33,1.11-4.86.29.81-2.89,2.14-4.94,3.42-7.38-.79-.25-1.36-.05-1.85.02-1.74.25-3.2,1.04-4.89,1.54l3.78-3.42c4.67-2.91,9.36-5.79,13.71-9.17.81.55.74-.75.38-1.05,5.15-2.47,10.1-5.48,14.83-8.64,2.5-1.67,4.77-3.59,7.19-5.67l11.73-9.67c-1.56,2.73-3.53,5-5.92,7.49l-4.6,4.78c-3.44,3.57-7.26,6.48-10.97,9.73l-7.06,6.17c3.85.11,6.79-1.4,10.64-2.1l-6.92,4.95c5.57.62,10.67-.17,15.88-1.06.36-.06.6.06.96.37Z"/>
      <path class="cls-8" d="M135.24,56.46c-10.44,1.4-19.85,6.53-27.45,14.46l-14.12,10.8c-3.74,2.86-10.4,8.66-12.29,11.73s-4.66,5.32-6.72,8.23c-2.91,4.12-6.54,7.28-11.39,9.37.65-2.59,2.36-4.17,4.03-5.76l5.33-5.09,8.32-8.09c3.44-4.25,6.88-8.02,10.51-12.1l16.21-18.18,12.8-12.93c.61.88,1.44.69,2.54.45-.86.98-1.32,1.66-.6,2.75l4.16-2.89c.75-.52,2.09-1.2,2.34-.22-.45,1.3-2.15,2.41-1.99,4.13,1.21-.22,1.65-1.26,2.77-2.1.8,1.2.18,2.21-.21,3.89,2.37-.88,3.79-2.2,6.33-1.79-.32,1.3-.78,2.33-.57,3.34Z"/>
      <path class="cls-133" d="M163.69,12.56c.87.71,2.2,1.14,3.29,1.27,3.27.36,2.24,3.75,5.03,4.94-1.72,2.33-4.19,3.43-6.34,5.74,2.48-1.03,4.56-1.5,6.45.27.47.44,2.05.69,2.04,1.55-4.26,1.85-7.06,6.25-9.07,3.99-2.53,2.28-3,6.23-3.56,9.8-.31.52-1.68-.13-1.9-1.19-1.14.84-1.76,1.65-2.48,3.01-2.72-3.27-2.63-5.97-3.79-2.82-1.24-1.15-1.35-2.69-2.36-4.52-1.06,2.74-1.27,5.84.08,8.28-2.33-1.45-5.91-8.27-5.07-10.88l.39-1.22-.91-1.02c.71-1.22,1.29-2.7,2.33-3.58.74-.63,2.25-.26,3.05-1.57l-5.45.22c1.53-1.61,3.76-1.52,5.73-2.31,4.3-1.71,5.34,2.98,8.34.95-1.66-.6-2.54-1.5-2.53-3.25,2.14.86,3.61,0,5.56-.94l2.82-1.34c.77-.36-.33-1.35-.7-.96-.12.13-.52,0-.47-.42.24.17.66-.29.52-.41l-2.81-2.48c.04-.95,1.04-.92,1.78-1.12Z"/>
      <path class="cls-55" d="M148.23,248.01l-31.43,17.1-.11-33.38,15.61-8.3,15.83-8.19.1,32.77ZM138.39,229.53l6.36-9.99-24.51,13.22,12.06,6.55,6.09-9.78ZM145.6,246.07l-.03-25.5-3.42,4.72-9.25,14.27,12.71,6.51ZM132.38,240.4l-11.9,19.04-.45-.46,11.87-19.02-12.49-6.48-.06,19.21.38,7.59,6.61-3.25,18.59-10.16-12.55-6.47Z"/>
      <path class="cls-175" d="M76.03,205.23l-30.9-16.54v-33.16s30.96,16.53,30.96,16.53l-.06,33.18ZM51.57,165.7l-3.59-4.04-.19,24.73,12.11-6.05-3.37-5.2-4.96-9.44,8.88,14.3,12.43-6.57-16.16-8.82-7.81-3.77,2.66,4.86ZM73.38,199.89v-25.53s-12.52,6.5-12.52,6.5l8,12.52c1.41,2.21,2.42,4.5,4.52,6.51ZM72.07,200.1l-11.89-19.09-11.3,6.06,7.18,4.58,16.01,8.46Z"/>
      <path class="cls-137" d="M148.29,208.61l-31.52,16.85v-33.16s22.65-11.58,22.65-11.58l8.64-4.55.22,32.44ZM133.2,200.49c4.6,2.09,8.23,4.06,12.41,6.39l.15-26.7-5.8,9.49-6.76,10.83ZM132.66,200.02l11.66-19.52-23.9,12.88,12.24,6.64ZM132.24,200.74l-12.91-6.94.15,26.05,12.76-19.1ZM144.9,207.53l-12.1-6.53-12.69,19.56,24.79-13.03Z"/>
      <path class="cls-157" d="M76.05,244.83l-30.95-16.61.13-32.77,30.85,16.3-.03,33.09ZM59.91,219.71l-8.98-14.54c-.9-1.46-1.63-2.93-2.84-4.49l-.3,25.14c1.64-.4,2.73-1.26,4.03-1.93l8.08-4.19ZM71.06,214.22c.77-.37,1.33-.88,1.65-1.49l-23.37-12.17,11.25,18.94,10.47-5.27ZM73.46,239.57l-.02-25.52-6.11,2.78-6.32,3.39,12.45,19.35ZM72.28,239.66l-11.89-19.16-12.21,6.27,24.1,12.89Z"/>
      <path class="cls-15" d="M175.73,194.71l-19.98,10.64-.07-33.42,30.88-16.06.11,33.07-10.94,5.77ZM171.47,180.15l11.77-19.78-24.74,12.85,12.97,6.92ZM184.18,186.51l-.39-24.7-11.82,18.59,12.21,6.11ZM170.89,180.7l-8.94-4.62c-1.06-.55-1.97-1.24-3.48-1.72l-.03,25.33,6.83-10.08,5.62-8.91ZM166.28,196.69l17.2-9.19-11.95-6.44-12.29,19.45,7.04-3.82Z"/>
      <path class="cls-63" d="M82.07,141.59l19.17,9.64c1.75.88,3.39,2.01,4.32,3.61-.41,2.17-5.68,2.99-8.58,5.48l-6.87,3.54-13.36,6.82-30.37-16.12,30.4-15.72,5.29,2.75ZM76.08,152.44c.46-3.62.41-6.9-.08-10.41-6.88,3.77-13.23,7-20.93,10.68l21.02-.27ZM77.18,152.43l21.03-.08-21.01-10.58c-.08,1.83-.62,3.54-.03,5.17v5.48ZM76.13,167.56c.37-5,.39-9.48-.01-14.27l-18.08-.03c-2.3.14-4.51-.03-6.54,1.64,4.48,1.73,8.18,3.84,12.2,5.99l12.43,6.67ZM77.54,167.61l24.76-12.9c-.26-.88-1.32-1.44-2.41-1.44h-22.7s-.05,6.93-.05,6.93c-.44,1.5-.31,2.59-.02,4.05.2,1.01-.51,2.38.42,3.36Z"/>
      <path class="cls-30" d="M155.78,244.72l-.02-32.95,18.73-10.12,12.22-6.18.02,32.75-30.95,16.5ZM172.07,218.03l5.83-9.21,5.35-8.93-24.28,13.01,5.19,2.87c1.85,1.02,4.07,1.55,5.84,3.08.51.44,1.06.28,1.36.14s.52-.68.71-.97ZM184.15,225.65l-.1-25.31-12.29,19.36,12.4,5.95ZM174.63,221.95l-3.27-1.61c-1.47,2.27-2.33,4.26-4.03,6.11-.37-1.59,1.16-2.39,1.67-3.28l1.83-3.16-12.34-6.42-.06,25.9,8.04-12.23c.06.1.21.26.4.34l-7.14,11.91,13.64-6.96,10.28-5.68c-3.01-2.13-5.85-3.34-9.03-4.91Z"/>
      <path class="cls-90" d="M115.07,225.16l-31.36-16.55.16-32.56,31.27,16.35-.07,32.75ZM90.01,186.35c-1.1-1.51-1.72-3.2-3.71-4.95l.09,25.27c.39-.13.47.69-.41,1.13.24-.28.62-.32.9-.04l23.41,12.03c.34.35,1.21,1.02,1.8,1.02.68,0,.73-.89.51-1.14l-.2-25.45-9.68,4.82-.1-.64,8.84-4.96-16.87-9.29-7.38-3.76,2.69,4.7c.21.37.16.89.1,1.25Z"/>
      <path class="cls-50" d="M115.09,264.95l-31.45-16.83.09-32.89,31.39,16.44-.03,33.28ZM86.26,221.57l-.05,23.57c-.7.21-.59,1.21.48,1.12-.75.56-.12,1.06.34.82l13.8,7.52,10.21,5.25c.16.26.49.49.69.65.31.26.97.16.93-.09l-.2-1.36.14-24.58c.05-.42.1-1.06-.17-1.49-.08-.14-.48.54-.57.41l-.47-.7-6.57-3.75-17.64-9.12c-.5-.26-.53-.32-.46-.78.04-.24-.52-.42-.75.18-.14.37.26.66.26,2.35Z"/>
      <path class="cls-159" d="M138.97,152.5l-5.68.84-3.7.98c3.04,2.71,6.46,3.61,9.7,5.37l14.93,8.14c.27-.98,1.07-.88,1.38.04l7.95-4.49,16.45-8.66c-.39-.6-1.44-1.15-1.97-1.31-.83-.22-1.67-.65-2.47-1.08l-20.17-10.7-.69,5.72-.39-5.28-8.74,4.31c-.35.17-.42.75-.37.97-1.47-1.13-5.4.04-5.58.2-.46.41-1.08-.4-.64-.62l16.02-8.07,13.05,6.66,17.75,9.07-30.37,15.71c-1.39-.22-2.53-.75-3.78-1.43-9.42-5.08-18.58-9.87-28.53-14.52,1.81-.96,3.68-2.43,5.64-2.52,1.05-.05,6.07,1.3,10.2.67Z"/>
      <path class="cls-65" d="M86.74,116.26l-18.78,6.15c-2.45.8-4.82,1.24-7.55.62,1-2.3,2.25-4.23,3.86-5.89l.72-.75c.29-.3.66.04,1.02.33,2.86.38,5.29-.41,8-.92,14.14-2.69,27.4-7.97,40.38-14.73l13.31-6.94.9-.73.03-.73c.62-.26,1.33-.97,1.75-1.42.54.54.66,1.61,1.06,1.75,1.97.69,3.34-.26,5.47-.77-1.67,1.95-3.62,3.12-5.87,4.38-8.81,4.93-17.9,8.86-27.29,12.71-5.85,2.4-11.23,5.05-17.01,6.94Z"/>
      <path class="cls-158" d="M133.57,68.6c-.39.64-.28,2.59.56,2.49,3.05-1.89,4.57-4.94,7.14-7.29-.06,2.69-1.51,5-2.47,7.17.3.36.68.82.58,1.03l-1.32,1.87c-.99.36-1.84,4.9-5.29,5.53-1.54.28-2.41-1.78-1.77-3.15l1.5-3.22c.17-.37,1.23-.65.67-1.43-.5-.05-.79.93-.67,1.43-2.14,1.49-2.6,5.32-5.75,5.97-.82.17-1.61-1.2-1.71-1.79s.22-1.44.49-2.1l1.27-3.13c-1.98,1.38-1.78,5.1-5.71,6.25-.96.28-1.71-.4-2-1.2-.21-.57-.51-1.29.08-2.23l2.47-3.92-.34-.32-3.86,4.91c-.8,1.02-2.36,2.46-3.76,1.53-1.27-.85-.74-3.23.07-4.35.96-1.33,2.54-1.99,2.94-3.6-2.58,1.64-4.16,3.94-6.6,5.08-.48.01-.98-.68-1.16-1.08-.23-.54-.04-1.42.41-2.02,3.26-4.37,7.76-7.19,12.31-9.44,2.5,1.39-1.54,3.13-1.75,6.92l7.31-3.65c.52-.26.96-.4,1.27,0,.59.77-1.85,2.21-2.29,4.41,1.75-.92,2.88-1.72,4.81-1.54-.64.73-.24,1.93.3,1.88.67-.75,1.41-1.66,2.29-.99Z"/>
      <path class="cls-98" d="M140.55,168.12c-1.51.62-2.57-.7-3.4-1.18l-5.13-3c-.39.36-.89.05-.66-.58-1.29.57-2.69-.27-2.94-1.47-.3.62-1.02.41-.77-.34-1.15.39-2.27-.41-2.51-1.51-1.34.91-1.72-.84-1.41-3.79,3.56,1.31,6.49,3.23,9.67,4.83l20.91,10.59.05,10.32-.05,22.97-2.5-1.44-2.04-.76.04-28.9-8.29-4.83c-.19-.11-.61-.14-.96-.93Z"/>
      <path class="cls-186" d="M106.87,154.93c.27,1.13.8,3.26.37,4.67.14.53,1.22,1.02.45,1.86-.42.46-.84,1.02-1.93.53-.37.26-.66.85-1.34.43-.36-.03-1.3.5-1.66.17l-1.06-.99c-.69-.64-1.89.12-2.83.83-.45-.53-1.09-.65-1.19.15-.31,1-2.28,1.95-2.2,3.37.11,1.79-2.97,1.3-3.71,2.99-.13-.2-1.11-.59-1.18-.3-.05.19.11,1.03-.73.35-.03-.1-.41.25-.39.96-.1-.41-.87-.61-.82-.41.15.67-.38.56-.65.52-.5.5-1.01,1.82-2.47,1.31-.46.86-1.76,1.72-3.08,1.51l-.45,18.19-.45,11.07c-.08,1.83-3.84,1.81-4.13,2.97-.33-4.75.19-9.51.08-14.56l-.12-5.51.1-13.21c5.87-3.09,11.17-6.01,16.86-8.46,1.53-.66,2.31-1.75,2.65-3.06,2.9-2.49,8.17-3.3,8.58-5.48-.06-.23-.27-.41-.16-.71.08-.22.28-.39.71-.35.18.28.66.75.75,1.14Z"/>
      <path class="cls-51" d="M149.31,58.25c-1.36,1.56,3.07,3.58,2.99,6.37-.09,3.16-2.48,5.78-4.69,7.99-.92.92-1.45,1.91-3.07,1.74l2.52-6.12c.3-.74.36-1.7-.44-1.88-1.47,2.72-3.56,5.05-5.99,6.72-.47-.75-.83-.98-1.26-1.07.1-.21-.29-.67-.58-1.03.96-2.17,2.41-4.47,2.47-7.17-2.57,2.34-4.09,5.4-7.14,7.29-.84.1-.95-1.85-.56-2.49,1.94-1.9,1.1-5.75,5.16-8.93-2.88-.16-4.82,1-7.27,2.04-.11-2.09,3.08-1.91,2.96-4.31,4.97-.79,10.15-.82,14.89.84Z"/>
      <path class="cls-74" d="M101.88,167.64l-10.1,5.03-2.99,1.02c-.18-.72-.59-.42-.69-.28-.26.37-.34.74-.32.99.01.17,1.05.35,2.55,1.08l9.64,4.66,15.16,7.86c.47-.8.28-1.78.29-2.58,1.09.3-.1,2.15.96,2.48,0,.33.47.41.63.02l23.88-12.5c.23-.12.98.08.89-.15-.5-1.28,2.19-.59,4.29-1.78.33.17.92.12,1.59.88l-10.67,5.78-21,11-16.44-8.65-15.88-8.2,12.98-6.25c1.77-.85,3.59-1.05,5.25-.4Z"/>
      <path class="cls-155" d="M138.06,73.87l1.32-1.87c.42.08.79.32,1.26,1.07,2.44-1.67,4.52-4,5.99-6.72.8.19.74,1.15.44,1.88l-2.52,6.12c1.62.17,2.15-.82,3.07-1.74,2.2-2.21,4.59-4.84,4.69-7.99.08-2.79-4.36-4.81-2.99-6.37,2.94,1.03,5.34,3.46,5.93,6.9,1.72,10.01-5.8,20.84-14.26,27.01l-1.36-1.45,5.91-6.01c3.74-3.81,6.47-8.52,7-13.74-2.14,4.25-5.84,8.11-7.9,6.46-.66-.53-.64-1.51-.84-2.63-.42,2.34-1.11,3.77-3.24,4.54-1,.36-1.94.64-2.8-.18-1.48-1.39-.07-2.72.32-5.28Z"/>
      <path class="cls-164" d="M82.26,242.04c-1.47,1.08-2.76,1.59-4.63,2.42l-.14-6.06v-15.72c-.01-3.44-.39-6.79-.06-10.41,1.6-1.32,3.65-2.25,5.57-2.72,1.27,1.06,2.42,1.28,3.36,2.78-1.19.12-1.76.32-2.29.51-.43.13-1.42.76-1.72,1.24l-.09,27.95Z"/>
      <path class="cls-135" d="M96.73,220.15l-11.06-5.7c.91-.83,1.6-1.04,2.55-1.47l24.4,12.94c1.5.79,2.8,2.09,4.57,1.16l26.88-14.11c.88-.22,2,.85,2.48,1.42l-15.24,8.02c-5.08,2.67-10.16,4.81-14.94,8.16l-19.63-10.43Z"/>
      <path class="cls-149" d="M158.49,1.5c-.86,1.12.78.34,2.8,1.81.65.47-.03,1.62-.16,2.2,1.59,1.23,3.67,2.03,4.69,3.77-3.08.96-5.77-.77-5.65,1.48-3.7-1.16-6.27,4.49-14.32,3.95l4.67-4.98c-1.26-.72-2.5-.33-3.69-.54.3-1.15.96-1.19,1.69-1.55-2.14-1.36-4.53,1.45-5.51-.29.96-1.18,4.2-2.28,6.9-3.24.71-.69-.19-1.51-.95-.85-.5-.31-.93-.08-1.2-.03-.18.03-.4-.11-.35-.52,3.62-.84,7.35-1.45,11.08-1.22Z"/>
      <path class="cls-27" d="M154.35,244.06c-1.72-.21-2.9-1.21-4.58-1.92v-28.42c-1.53-.46-2.79-.87-3.93-1.82,1.6-.9,2.78-1.37,3.75-2.42l4.7,2.56-.02,12.08.09,19.92Z"/>
      <path class="cls-25" d="M130.51,100.26l-9.87,5.71c-11.48,6.64-24.06,10.95-37.27,13.82.9-1.27,2.29-1.96,3.54-2.47l12.68-5.21c11.02-4.52,21.69-9.2,32.16-14.8,4.95-2.65,7.86-6.97,8.26-4.77.06.32-.36.76-.68,1.01l-8.81,6.73Z"/>
      <path class="cls-112" d="M128.63,92.67l-25.43,12.65c-5.62,2.79-11.21,4.64-16.9,6.42-.2-.77.15-1.34.79-1.79,4.28-2.93,11.76-6.44,11.87-6.66.08-.16.12-.37.25-.59l13.51-5.64c4.08-1.7,7.76-3.59,11.49-5.94,1.57,3.18,3.78.59,4.41,1.54Z"/>
      <path class="cls-130" d="M82.51,106.99l-.42-2.08,8.89-3.75c.49.32.6-.37.59-.65,1.32-.02,2.28-.92,3.53-1.36,7.72-2.73,15.06-5.64,22.84-9.02.2,2.03,1.35,1.54,2.31,2.58-12.63,5.85-25.11,10.94-37.75,14.28Z"/>
      <path class="cls-86" d="M86.3,111.75c-6.38,2-23.22,6.6-19.98,2.43l4.39-5.66c3.66,2.33,11.76-.51,16.94-2.15l11.57-3.66c-.14.22-.17.43-.25.59-.11.22-7.59,3.73-11.87,6.66-.64.44-.99,1.02-.79,1.79Z"/>
      <path class="cls-71" d="M103.38,80.92c-1.33,1.28-2.19,3.06-2.6,4.7-4.55,2.62-9.53,4.76-15.44,4.82,4.11-4.71,8.88-8.19,13.73-11.73l8.37-6.1,2.13,2.24-6.2,6.07Z"/>
      <path class="cls-124" d="M122.29,135.97c.48.41,1.13.95,2.41,1.12l.15-8.64-.34-.89c1.3-.26,3.37-1.26,4.81-.72l18.17,9.33-17.79,8.91c-.52-1.01-1.46-1.22-1.95-1.84l-5.47-7.26ZM142.33,136.22l-13.25-7.18c-1.1-.6-1.84-.84-3.35-.93l-.09,8.51c2.09.23,3.83.2,5.72.11l10.97-.51ZM129.67,143.22l9.71-5.41c-4.67-.64-8.87-.43-13.4-.23-.51,2.72,2.52,6.28,3.68,5.63Z"/>
      <path class="cls-118" d="M134.42,57.41c.12,2.4-3.07,2.22-2.96,4.31,2.46-1.04,4.39-2.2,7.27-2.04-4.06,3.18-3.22,7.03-5.16,8.93-.88-.67-1.62.23-2.29.99-.54.05-.94-1.14-.3-1.88-1.93-.18-3.06.61-4.81,1.54.43-2.21,2.87-3.64,2.29-4.41-.3-.4-.74-.25-1.27,0l-7.31,3.65c.22-3.79,4.25-5.53,1.75-6.92,4.04-2,8.28-3.45,12.78-4.16Z"/>
      <path class="cls-138" d="M115.3,169.27l.08,4.48-2.79.27-18.82.02-1.5-.19c-.5-.06-.78-.76-.48-1.18l10.1-5.03,13.41,1.63Z"/>
      <path class="cls-21" d="M172.01,18.76c-2.79-1.19-1.76-4.58-5.03-4.94-1.1-.12-2.42-.56-3.29-1.27-1.05-.85-2.24-1.39-3.52-1.79-.12-2.25,2.57-.52,5.65-1.48-1.02-1.74-3.1-2.54-4.69-3.77.12-.58.8-1.73.16-2.2-2.02-1.47-3.66-.7-2.8-1.81,6.5.4,12.17,4.12,16.1,9.83-3.63,1.94-1.43,5.88-2.57,7.43Z"/>
      <path class="cls-31" d="M80.26,208.79c-.74.14-1.68.81-2.31,1.14-1.27.66-2.46.05-3.63-.93-1.8-1.5-4.43-1.95-6.79-3.39.21-.64-.38-1.14-.79-.45l-19.6-10.67c.33-.91,1.16-1.27,1.78-1.43s1.42.42,2.07.76l9.02,4.7c5.63,2.93,10.9,6.17,16.73,8.6l5.15-2.72c.9,2.27.6,3.98-1.63,4.39Z"/>
      <path class="cls-134" d="M105.2,145c-1.71-3.02-3.38-5.76-1.65-8.07,3.51-.14,7-.07,10.74.22l.14,11.79-3.27-1.62c-1.57-.78-3.21-1.46-5.14-2.24-.17-.63-.67-.36-.82-.08Z"/>
      <path class="cls-26" d="M154.86,210.5l-4.97-2.55-.07-3.39,5.64,2.74,27.19-14.34c.83.09,1.73.66,2.09,1.55l-16.01,8.41-13.87,7.58Z"/>
      <path class="cls-187" d="M85.29,101.09c-.22-.83.03-1.35.96-1.82l8.03-3.99c.06-.14-.1-.38,0-.67,4.16-1.08,8.18-3.03,12.16-4.89,1.25-.58,3.72.85,5.12-1.53-.16,1.78.19,2.16,1.19,3.09-9.24,4.03-18.29,7.16-27.47,9.8Z"/>
      <path class="cls-32" d="M131.57,91.31l8.18-8.14c1.56-1.55,2.8-3.05,3.86-5.26,2.84,1.5,4.85-.09,6.72-2.16-2.3,6.61-12.32,16.65-17.66,16.86-.41.02-1.07-.7-1.11-1.3Z"/>
      <path class="cls-174" d="M137.48,173.07c-.44.54-.99.81-1.79.65-1.44-.29-2.71.19-3.99.2l-12.46.08-3.86-.24-.08-4.48,11.2,1.24c2.13.24,4.14.53,5.72,2.24l2.1-2.72c-.57-.38-1.47-.45-1.34-1.46,1.98,1.03,3.42,2.7,4.5,4.49Z"/>
      <path class="cls-139" d="M178.54,20.01c-1.9-1.54-4.48-.95-5.08-2.9.04-.59-.04-1.59-.3-2.58-.21-.79,1.06-2.71,2.01-2.23,3.63,1.82,7.1,3.09,11.01,4.02,3.13.75,6.37,1.8,8.47,4.41-5.47-2-10.85-2.05-16.11-.71ZM176.86,15.28c-.3-1.04-1.45-1.37-1.91-1.22-.55.18-1.09,1.21-.53,1.83.64.7,2.64.08,2.44-.61Z"/>
      <path class="cls-59" d="M133.16,80.39c.97-.76,1.88-1.24,3.1-2.24.38,1.38,1.09,2.14,2.01,2.26,1.14.15,1.94-.34,3.47-.84-3.58,4.36-7.41,8.84-12.55,11.76-1.41.8-3.07.94-3.94-.4l8.95-10.31c-.44.06-.64.05-1.04-.22Z"/>
      <path class="cls-169" d="M115.05,135.48l5.58,5.65c-1.79.19-2.38-2.96-5.06-3.88v10.94c.68-.35.71-.8.76-1.13.07-.42.56-.48.84-.21-1.11,2.04,1.61.35,5.04,1.14-2.53,1.29-4.84,2.43-7.28,4.27l-7.46-4.1c-1.24-.68-1.71-2.15-2.27-3.14.15-.28.65-.55.82.08,1.94.78,3.57,1.46,5.14,2.24l3.27,1.62-.14-11.79c-3.74-.28-7.23-.36-10.74-.22l.61-1.49c3.38,1.19,7.45,1.55,10.9.04Z"/>
      <path class="cls-117" d="M133.16,80.39c-3.6,4.49-11.19,14.09-14.17,10.38-.3-.37-.08-1.22.36-1.7l10.57-11.53c.39,1.07.52,1.8,1.09,2.24.53.41,1.5.19,2.15.61Z"/>
      <path class="cls-111" d="M118.4,88.62c-2.26,2.3-6.13,2.33-6.01.54.15-2.41,8.27-8.7,11.82-12.14.24,1.07.49,1.64.87,2.06.58.63,1.17.61,2.15.54l-8.83,8.99Z"/>
      <path class="cls-89" d="M146.07,173.49c-2.1,1.19-4.8.5-4.29,1.78.09.23-.66.03-.89.15-.09-.28-.49-.71-1.04-.71l-20.6-.03-3,.27.14,12.95c-1.06-.33.13-2.18-.96-2.48l.17-10.5-3-.26-19.76.11c-.93,0-1.98.17-2.5.72-1.5-.73-2.54-.91-2.55-1.08-.02-.25.06-.61.32-.99.09-.13.51-.44.69.28l2.99-1.02c-.29.42-.02,1.12.48,1.18l1.5.19,18.82-.02,2.79-.27,3.86.24,12.46-.08c1.29,0,2.55-.49,3.99-.2.8.16,1.36-.11,1.79-.65.05.49.85,1.08,1.07.76l.06-4.22,7.46,3.87Z"/>
      <path class="cls-49" d="M91.57,100.51c.02.28-.09.97-.59.65l-8.89,3.75.42,2.08-4.75,1.25c-2.14.56-4.5,1.12-6.6-.25l4.02-5.38c6.3,1.52,11.85-2.03,16.39-2.11Z"/>
      <path class="cls-93" d="M107.56,88.54c-1.38-1.12.18-3.2,1.07-3.99l7.78-6.92,1.83-2c.15,1.76.31,2.92,1.87,3.99l-8.46,7.87c-.79.74-3.13,1.82-4.08,1.05Z"/>
      <path class="cls-22" d="M92.02,94.23c-3.29,1.36-7.09,2.21-11.15,1.9.83-2.19,2.18-3.37,3.41-5.12,5.58.43,10.84-1.33,15.57-3.97.01.09.02.28.2.58-2.23,2.33-4.86,3.98-7.84,5.36-.3.14-.45.81-.19,1.24Z"/>
      <path class="cls-11" d="M101.39,149.36l-5.32-2.47-11.66-6.25-.27-2.35c.1-.56.66-.73,1.05-.85.57-.17,1.23.77,1.63.99l8.74,4.74c1.62.88,3.84,1.61,4.65,3.26.4.81,2.08,1.71,1.19,2.94Z"/>
      <path class="cls-162" d="M115.59,167.74l-11.57-1.53c-.68-.09-.53-2.14.17-2.28l6.09-1.22c-.36-.43-.59-.79-.6-1.08-.03-.66.62-.84,1.23-1.11,1.6-.7,1.68,2.22,6,3.72l-1.32,3.5Z"/>
      <path class="cls-166" d="M94.29,94.62c-.1.29.05.53,0,.67l-8.03,3.99c-.94.47-1.19.98-.96,1.82-2.94.85-5.98,1.55-9.7,1.02l4.83-5.68c2.01.62,3.95.74,5.69.3l8.18-2.11Z"/>
      <path class="cls-143" d="M122.72,152.53c-2.13,2.47.32,6.81-2.09,5.77-.44-.19-.92-.25-1.13-1.13-.47.6-.98.3-.92-.46-.34.47-1.05.55-1.43.35-.21-.11-.86-3.96-.65-4.25.33-.44.84-1.19,1.56-1.52l7-3.14c.43,1.07,1.02,1.17,1.75,1.54-.36,1.12-.99,1.4-1.67,2.2-.49-.55-.94-.22-.91.56-.08-.42-.79-.47-.73-.27.08.25-.05,1.04-.78.34Z"/>
      <path class="cls-18" d="M94.21,133.81l-4.61,2.27,6.53,3.44c.18-.05.37-.12.62-.16l1.83,3.93-14.4-7.53,5.47-2.64,1.3-.4,2.81-1.45.44,2.55Z"/>
      <path class="cls-141" d="M135.33,147.25l-3.79-.81c.61-1.42,1.74-1.76,2.87-2.29l13.29-6.2c.57.63.7,2.48-.34,3.03l-12.03,6.27Z"/>
      <path class="cls-116" d="M115.05,135.48c-3.44,1.51-7.52,1.15-10.9-.04l4.09-6.24,2.2.49c1.32,2.28,2.92,4.07,4.61,5.79Z"/>
      <path class="cls-131" d="M112.17,80.08c-5.25,4-6.54,8.83-9.44,7.58-3.17-1.36,1.18-6.98,5.07-10.22.09.92.39,1.42,1.17,1.91-.81.57-1.33.84-1.58,1.87,2.4-.45,4.01-2.47,4.78-1.14Z"/>
      <path class="cls-29" d="M124.51,127.56l.34.89-.15,8.64c-1.28-.17-1.93-.71-2.41-1.12-2.06-1.76-3.76-3.91-3.89-7.19l6.11-1.22Z"/>
      <path class="cls-91" d="M175.21,25.4l-5.26-3.12c7.21.09,14.28-4.13,21.99-1.41-6,.51-11.63,1.34-16.73,4.53Z"/>
      <path class="cls-107" d="M124.61,163.52c-4.55.4-9.12.02-11.55-2.92l3.89-2.34,10.82,5.33-3.17-.08Z"/>
      <path class="cls-84" d="M134.35,147.87c-.43,1.31-.53,1.71-.35,2.96-2.22.09-4.57-.16-6.26-1.53l-4.3-5.84c-.36-.49-1.02-1.02-.91-1.56s.77-1.05,1.2-1.17c.84-.23,1.14.97,1.51,1.34l3.39,3.33c1.56,1.54,2.96,2.74,5.72,2.47Z"/>
      <path class="cls-97" d="M120.63,141.13l2.07,3.48c-2.56-.15-4.2.69-5.53,2.23-.28-.27-.77-.2-.84.21-.05.34-.08.78-.76,1.13v-10.94c2.68.93,3.27,4.07,5.06,3.88Z"/>
      <path class="cls-47" d="M114.93,127.76c-1.75.37-3.59.86-5.87.19l6.22-8.53,1.97,1.07-.97,3.28-1.35,3.99Z"/>
      <path class="cls-156" d="M92.02,94.23c-.26-.43-.11-1.1.19-1.24,2.98-1.38,5.61-3.04,7.84-5.36-.18-.3-.19-.49-.2-.58.28-.15.46-.54,1.02-.64.4,1.15.74,1.83,1.3,2.06.72.29,1.72.2,2.42-.05l1.18-.42c.25-.09.72.62.55.8-3.73,2.07-7.83,3.42-12.02,4.88-.91.32-1.54.65-2.27.56Z"/>
      <path class="cls-161" d="M95.08,131.07c.13-1.25.47-2.43,1.07-3.56,1.36-.03,2.57.7,4.55.34.06,1.51-.72,2.73-1.48,4.11l-2.68,4.85c-1.08-1.88-1.66-3.82-1.46-5.74Z"/>
      <path class="cls-182" d="M114.99,154.08c.56.72.54,3.04-.22,3.6-.36.26-.53.33-1.2.1-.84,3.02-4.06-3.15-5.69-7.82l4.86,3.28c.6.4,1.59.01,2.24.84Z"/>
      <path class="cls-142" d="M112.17,80.08c-.77-1.33-2.38.69-4.78,1.14.24-1.03.77-1.3,1.58-1.87-.78-.5-1.07-.99-1.17-1.91l4.5-3.75c-.48,2.27.13,3.83,2.33,4.52l-2.46,1.87Z"/>
      <path class="cls-152" d="M96.76,139.36c-.25.04-.44.11-.62.16l-6.53-3.44,4.61-2.27,2.54,5.55Z"/>
      <path class="cls-12" d="M102.73,136.01l-3.64-1.28c.25-1.28.88-2.35,1.83-3.46,1.61.47,2.98.45,4.63.08l-2.82,4.66Z"/>
      <path class="cls-5" d="M118.09,131.62c-1.39-.5-2.29,1.14-3.07,1.63-1.49-.16-2.68-2.17-2.7-3.58l4.96-.57.81,2.52Z"/>
      <path class="cls-64" d="M178.54,20.01c-2.56.65-5.09,1.77-8.09,1.51,1.35-1.28,2.9-2.68,3.01-4.42.6,1.96,3.18,1.36,5.08,2.9Z"/>
      <path class="cls-153" d="M121.06,168.45c-1.42-.08-2.61-.27-4.09-.8l1.33-3.36c1.4.12,2.51.31,3.76.82l-1.01,3.34Z"/>
      <path class="cls-79" d="M63.23,116.53c-2.19,2.4-5.33,3.28-7.96,5.02.13-2.47,5.28-4.89,8.89-6.7.15.99-.53,1.25-.92,1.68Z"/>
      <path class="cls-103" d="M123.86,139.77c-.79.71-1.33,1.07-2.21,1.35-.97-1.65-2.22-2.76-3.5-4l2.96-.94,2.75,3.59Z"/>
      <path class="cls-132" d="M104.18,144.91c.4.73-.69,1.21-1.22,1.36-.95.27-3.14-2.47-2.37-3.6.34-.49,1.62-1.33,2.03-.6l1.57,2.83Z"/>
      <path class="cls-40" d="M102.49,165.93l-5.03-.26c.94-1.22,2.21-2.93,3.84-2.73.9.11,1.6,2.23,1.18,2.99Z"/>
      <path class="cls-100" d="M102.97,123.33c-.45,2.37-2.15,4.2-5,3.58-.34.32-.86-.4-.83-.77,2.84-.69,4.25-2.95,5.83-2.81Z"/>
      <path class="cls-4" d="M124.53,164.82c.72.1.94,2.84.43,3.53-.38.51-1.31.54-2.78.14-.02-2.07.89-3.88,2.35-3.67Z"/>
      <path class="cls-60" d="M119.53,134.57c.24.29.76.55.77.73.01.31-.81.49-1.13.63-1.29.56-2.16.41-2.84-.67-.82-1.31-.15-2.34,1.47-2.81l1.72,2.12Z"/>
      <path class="cls-145" d="M106.87,154.93c-.1-.4-.58-.86-.75-1.14-.22-.78-.59-1.74-1.34-2.81l2.05-.78,1.82,3.91c-.8.69-1.24.82-1.78.82Z"/>
      <path class="cls-66" d="M106.4,149.23c-.8.53-1.4.76-2.17.95l-1.81-2.99,2.15-.81,1.84,2.85Z"/>
      <path class="cls-38" d="M127.48,168.92c-1.75-.19-1.47-2.82-1.42-3.89,1.19-.5,1.82.52,2.33,1.17.43.55.08,2.83-.91,2.72Z"/>
      <path class="cls-150" d="M99.72,141.97c-1.03-1.3-1.55-1.77-1.46-2.93,1.63.28,2.66.14,3.89-.18.22.52.2,1.82-.19,2-.84.37-1.78.47-2.23,1.11Z"/>
      <path class="cls-73" d="M102.45,136.74c-.78,1.56-2.92,1.41-4.84.84-.26-.57.57-2.11,1.21-1.92l3.62,1.08Z"/>
      <path class="cls-96" d="M131.53,170.26c-1.09-.53-1.7-.8-1.96-1.17-.31-.44-.1-1.7.6-1.96.42-.16,1.4.39,1.49.83.13.66.26,1.81-.13,2.3Z"/>
      <path class="cls-168" d="M111.24,159.34c-1.02.54-1.41.81-1.69.81-.55,0-1.34-2.28-.94-2.65.35-.32,1.36-.43,1.75.04.48.58.86,1.35.88,1.8Z"/>
      <path class="cls-87" d="M125.05,146.79c-.76,1.59-2.4-1.04-5.93-.1,1.54-1.49,4.16-1.29,5.93.1Z"/>
      <path class="cls-19" d="M138.07,149.14c0,.85.47,1.49,1.05,2.66-.85.18-2.14-.67-2.28-1.53-.1-.64.8-1.08,1.23-1.13Z"/>
      <path class="cls-36" d="M108.01,155.36c.47-.34.92-.24,1.27.16.26.3.31.81-.13,1.16-.24.19-.76.25-1.16-.14-.27-.27-.93-.48.02-1.17Z"/>
      <path class="cls-19" d="M138.07,149.14c-1-.72.14-1.46.52-.5.42-.04,1.18,0,1.31.3.1.23.17.79-.22,1.2-.41-.59-.92-1.1-1.61-1Z"/>
      <path class="cls-23" d="M136.91,170.39c-.39-.96-1.04-1.5-1.77-2.33,1.33-.16,2.35,1.06,1.77,2.33Z"/>
      <path class="cls-144" d="M131.48,166.05c-1.11.01-1.91-.45-2.44-1.29,1.11-.01,1.91.45,2.44,1.29Z"/>
      <path class="cls-179" d="M144.16,148.04c-.69.33-1.44.21-2.13.18-.16-.11-.24-.24-.25-.27.69-.33,1.44-.21,2.13-.18.16.11.24.24.25.27Z"/>
      <path class="cls-80" d="M135.79,149.22c.11.56-.32.98-.63.7-.08-.84.15-1.03.26-1.23.2-.35,1.02.07.36.53Z"/>
      <path class="cls-81" d="M33.46,94.11l.03-1.93c.55.23.86,1.61,1.62,1.68,2.16.19,3.42-2.02,3.7-3.98l-3.35-1.83-.81-.71-4.85-2.42c1.04-.64,4.24.93,4.62,1.25,1.81,1.47,4.26,1.93,6.4,3l7.47,3.72c.17-.66.23-1.89-.1-2.57-4.01-1.29-5.99-7.41-5.42-8,.23-.24.81-.2.89,0l.36.9c.88,2.2,1.3,4.57,3.89,5.71l.72-10.6.83.18.42,14.33,8.07-7.76c.36-.35.83-.3,1.03-.2.13.07.44.48.3.62l-8.5,8.56,8.96,4.8c.1.39-.31,1-.6,1.07-.38.08-.91-.26-1.28-.45l-8.07-4.25-.35,9.71h-.75s-.43-8.24-.43-8.24l-11.63,10.46c-.51.46-1.26-.28-.84-.79l12.69-11.79-8.75-4.4c-.33,1.94-.99,3.53-2.25,4.27-1.33.78-2.84.64-4.03-.34Z"/>
      <path class="cls-17" d="M80.63,58.03c.56.74,1.46,1.31,1.16,2.45-1.46-.59-2.04-1.4-3.14-2.43l-5.19,5.67,9.66.05c.32.1.21,1.58-.2,1.57l-12.25-.14,4.94-5.89c.6-.75,1.78-1.28,2.11-2.15-2.02-2.39-4.11-4.17-6.54-6.42l11.74-.3c.4-.01.56,1.15.12,1.53l-8.18.24c2.14,2.05,4.11,3.6,5.78,5.8Z"/>
      <path class="cls-43" d="M200.23,109.64l2.21-1.07.09-.94c.43.1.57.49.49.96,1.87-.49,3.55-.26,5.29.41,2.66,1.03,4.4,3.47,4.24,6.45-.13,2.41-2.02,4.7-4.46,5.74-1.15.49-2.53.35-3.74.54-.32.07-.66.18-.96.08-2.51-.85-4.75-2.24-5.62-5.3l-19.19.13.06,7.58c0,.58-.21.79-.34,1.04-.11.22-1.23.27-1.24-.08l-.27-8.55-7.59-.06c-.66,0-.89-.75-.65-1.06.2-.25.53-.34.99-.35l7.32-.12-.02-12.95c0-.65.51-.88.88-.9.18-.01.7.16.7.53l.08,13.11,4.89.08.22-6.69c.02-.47,1.28-.31,1.28.08l.05,6.52,12.65-.06c.1-2.26,1.22-3.83,2.63-5.14ZM202.32,117.01c-.32-.35-.97-.58-1.44-.51-.29.04-1.1.35-1.04.7.58,3.21,6.85,4.02,9.52,1.42,1.15-1.12,2.35-3.19,1.46-5.22-1.71-3.93-7.13-4.74-10.26-2.01-1.04.9-1.4,2-1.22,3.4,1.78-.24,3.48-.18,5.6-.03.53.04.53,1.21.11,1.45-.75.43-1.94.12-2.75.8Z"/>
      <path class="cls-183" d="M196.93,132.93c-.53-1.37.37-1.83,1.17-2.7,3.03-3.3,3.01-7.04,4.92-7.36-.16.35-.14.99.63.87.36,1.68.29,3.62-.26,5.79,1.2.62,1.33,2.56.56,3.56l-7.03-.16Z"/>
      <path class="cls-119" d="M174.74,130.37c-2.56.38-4.96.28-7.59.08-.49-.04-.52-1.58-.01-1.61l6.18-.26c.7-.03.97.16,1.26.28.35.14.54,1.45.16,1.51Z"/>
      <path class="cls-114" d="M187.07,117.7c.3-.37,1.41-.36,1.94-.15.4.16.56.9.12,1.52-.25.36-.87.53-1.46.49-.75-.05-1.32-.99-.6-1.87Z"/>
      <path class="cls-68" d="M62.9,58.89c.29.61.17,1.4.67,1.66l1.68.88c-8.76,3.33-16.59,7.87-24.8,13.11,5.49-8.6,11.6-16.12,18.99-22.92.76-.28,1.73,1.28,2.34,1.61,1.1.59,1.4,2.52.15,3.62l.97,2.04Z"/>
      <path class="cls-13" d="M61.03,50.41c-.54-1.43.57-2.07,1.51-2.58,2.88-2.09,5.25-4.79,9.01-5.93l-10.51,8.51Z"/>
      <path class="cls-120" d="M10.96,130.52c-.13.88.51,1.2.58,1.48.14.54-1.73.58-1.67.17,2.19-16.86,8.89-32.64,18.62-46.93-.06-1.07,1-1.04.99-.16l-7.71,13.3c-5.27,10.21-9.06,20.75-10.8,32.14Z"/>
      <path class="cls-146" d="M208.09,121.19c.48.74.08,1.47.89,2.34.84-.15,1.75.27,2.19,1.26.89,2.02-2.55,2.9-5.97,2.66l-.85-5.72c1.21-.19,2.59-.05,3.74-.54Z"/>
      <path class="cls-99" d="M115.76,110.54c.36.3.43,1.61-.38,1.05-4.35,3.38-9.03,6.26-13.71,9.17l-3.78,3.42c.27.27.03.63-.13.57-.23-.09-.82.22-1,.25-4.47.71-14.82.32-17.17-3.07,12.84-2.28,24.87-5.97,36.16-11.39Z"/>
      <path class="cls-61" d="M50.53,137.81c.11-1.71-3.58-1.56-6.75-.11-.41.19-.69.24-.9-.3,3.3-2.63,6.84-4.94,10.29-7.66l5.36-4.24c2.94,2.39,7.2.07,11.44-.7-6.33,4.9-12.65,9.34-19.43,13.01Z"/>
      <path class="cls-54" d="M24.47,149.78c-3.53,1.25-6.55,3.18-10.33,3.49l20.21-14.13c6.78-4.75,13.24-9.27,20.27-13.67,1.11-.69,1.75-2.37,3.49-2.07l-12.29,9.8-12.29,10.25c-2.89,2.41-5.17,4.94-9.05,6.32Z"/>
      <path class="cls-94" d="M16.28,150c-3.98,2.79-7.49,5.26-11.97,6.7l7.31-5.08c13.6-9.46,26.8-19.1,41.3-27.1l-14.09,9.69-22.55,15.79Z"/>
      <path class="cls-41" d="M50.53,137.81c-3.9,2.11-8,3.82-12.27,5.72-1.39.62-2.75,1.57-4.27.96l8.88-7.08c.21.54.49.49.9.3,3.17-1.46,6.87-1.6,6.75.11Z"/>
      <path class="cls-102" d="M32.05,170.32l3.27,7.49c-1.68-1-2.17,3.96-4.85,5.51-.39-.2-1.19-.52-1.45.1l-.51,1.21c-.48,1.14-1.79,2.67-3.09,2.4-.1-.63-.9-1.98-1.53-1.55s-.92.78-1.25,1.02c-1.09-2.12,4.31-3.1,3.6-5.46-.44-1.48.23-3.04.59-4.47-.51-.07-.84-.47-.97-.81-.33-.9,2.29-2.62,3.48-3.52l2.7-1.92Z"/>
      <path class="cls-95" d="M33.49,92.18c.02-1.43.82-3.25,1.97-4.13l3.35,1.83c-.28,1.96-1.54,4.17-3.7,3.98-.77-.07-1.07-1.45-1.62-1.68Z"/>
      <path class="cls-136" d="M160.17,10.77c1.27.4,2.47.94,3.52,1.79-.74.2-1.74.17-1.78,1.12-2.18-1.93-5.62-1.09-7.57,1.19-.43.5-.96.62-1.82.83,2.97,1.66,3.42-2.52,5.05-1.09-.99.68-2.36,1.2-1.77,2.82.14.39-.42-.03-.63.17-.36.35-.06.84.1.8l1.18-.22c1.02.34,2.33.9,3.42.82.81-.06,2.17-.76,2.25-2.09.07-1.2-1.33-1.92-2.03-2.7,1.84.11,2.81,1.54,4.1,2.37-.06.43.34.56.47.42.37-.39,1.46.6.7.96l-2.82,1.34c-1.96.93-3.43,1.8-5.56.94,0,1.75.88,2.65,2.53,3.25-3.01,2.03-4.04-2.66-8.34-.95-1.97.78-4.2.7-5.73,2.31l5.45-.22c-.79,1.31-2.31.94-3.05,1.57-1.04.88-1.62,2.36-2.33,3.58l.91,1.02-.39,1.22c-.24-.11-.88-.23-1.12-.05-.22.17-.54.71-.59,1.14l-.38,3.17-1.29-5.61c-1.52,1.19-.79,2.45-1.48,3.9-3.34-5.5-3.58-11.8-1.97-18.18-1.95.82-2.28,2.66-4.11,3.57.75-5.36,3.93-9.87,7.93-12.6.98,1.74,3.37-1.07,5.51.29-.73.36-1.39.4-1.69,1.55,1.19.21,2.44-.18,3.69.54l-4.67,4.98c8.04.54,10.61-5.11,14.32-3.95Z"/>
      <path class="cls-69" d="M161.91,13.68l2.81,2.48c.14.13-.27.58-.52.41-1.29-.82-2.25-2.26-4.1-2.37.7.78,2.1,1.5,2.03,2.7-.08,1.33-1.44,2.03-2.25,2.09-1.09.08-2.41-.48-3.42-.82l-1.18.22c-.16.03-.46-.45-.1-.8.21-.2.78.22.63-.17-.59-1.62.78-2.14,1.77-2.82-1.62-1.43-2.08,2.75-5.05,1.09.86-.22,1.39-.33,1.82-.83,1.95-2.28,5.38-3.12,7.57-1.19ZM159.15,15.7c-.59.33-.36,1.02-.14,1.18.15.11.66.26.89.19.48-.14.33-.86.06-1.07-.13-.11-.25-.63-.81-.31Z"/>
      <polygon class="cls-177" points="132.38 240.4 144.92 246.87 126.34 257.03 119.72 260.28 119.34 252.69 119.41 233.48 131.89 239.95 120.03 258.97 120.48 259.44 132.38 240.4"/>
      <polygon class="cls-129" points="145.6 246.07 132.89 239.56 142.14 225.29 145.57 220.57 145.6 246.07"/>
      <polygon class="cls-106" points="138.39 229.53 132.31 239.31 120.25 232.77 144.75 219.55 138.39 229.53"/>
      <path class="cls-24" d="M73.38,199.89c-2.1-2.01-3.11-4.3-4.52-6.51l-8-12.52,12.52-6.5v25.53Z"/>
      <polygon class="cls-76" points="51.57 165.7 48.91 160.84 56.72 164.61 72.88 173.43 60.45 180 51.57 165.7"/>
      <polygon class="cls-57" points="51.57 165.7 56.54 175.14 59.91 180.34 47.8 186.39 47.99 161.66 51.57 165.7"/>
      <polygon class="cls-85" points="72.07 200.1 56.06 191.64 48.88 187.07 60.18 181.01 72.07 200.1"/>
      <polygon class="cls-75" points="132.24 200.74 119.49 219.85 119.34 193.8 132.24 200.74"/>
      <polygon class="cls-6" points="132.66 200.02 120.42 193.38 144.32 180.51 132.66 200.02"/>
      <path class="cls-123" d="M133.2,200.49l6.76-10.83,5.8-9.49-.15,26.7c-4.18-2.33-7.82-4.3-12.41-6.39Z"/>
      <polygon class="cls-10" points="144.9 207.53 120.11 220.56 132.8 201 144.9 207.53"/>
      <polygon class="cls-14" points="73.46 239.57 61.01 220.22 67.33 216.83 73.44 214.05 73.46 239.57"/>
      <path class="cls-92" d="M71.06,214.22l-10.47,5.27-11.25-18.94,23.37,12.17c-.31.62-.88,1.12-1.65,1.49Z"/>
      <path class="cls-46" d="M59.91,219.71l-8.08,4.19c-1.3.68-2.39,1.53-4.03,1.93l.3-25.14c1.21,1.55,1.94,3.03,2.84,4.49l8.98,14.54Z"/>
      <polygon class="cls-44" points="72.28 239.66 48.19 226.77 60.39 220.5 72.28 239.66"/>
      <polygon class="cls-163" points="171.47 180.15 158.5 173.22 183.24 160.37 171.47 180.15"/>
      <path class="cls-160" d="M170.89,180.7l-5.62,8.91-6.83,10.08.03-25.33c1.51.48,2.42,1.17,3.48,1.72l8.94,4.62Z"/>
      <polygon class="cls-125" points="166.28 196.69 159.24 200.51 171.53 181.06 183.47 187.5 166.28 196.69"/>
      <polygon class="cls-1" points="184.18 186.51 171.97 180.4 183.79 161.81 184.18 186.51"/>
      <path class="cls-67" d="M77.54,167.61c-.93-.97-.22-2.35-.42-3.36-.29-1.47-.42-2.55.02-4.05l.05-6.93h22.7c1.09,0,2.15.56,2.41,1.44l-24.76,12.9Z"/>
      <path class="cls-62" d="M76.13,167.56l-12.43-6.67c-4.02-2.16-7.72-4.26-12.2-5.99,2.03-1.66,4.24-1.49,6.54-1.64l18.08.03c.4,4.79.38,9.27.01,14.27Z"/>
      <path class="cls-185" d="M77.18,152.43v-5.48c-.6-1.63-.06-3.34.02-5.17l21.01,10.58-21.03.08Z"/>
      <path class="cls-83" d="M76.08,152.44l-21.02.27c7.7-3.68,14.05-6.91,20.93-10.68.49,3.5.54,6.79.08,10.41Z"/>
      <path class="cls-172" d="M174.63,221.95c3.18,1.57,6.02,2.78,9.03,4.91l-10.28,5.68-13.64,6.96,7.14-11.91c-.19-.08-.34-.24-.4-.34l-8.04,12.23.06-25.9,12.34,6.42-1.83,3.16c-.51.88-2.05,1.69-1.67,3.28,1.69-1.85,2.55-3.84,4.03-6.11l3.27,1.61Z"/>
      <path class="cls-115" d="M172.07,218.03c-.18.29-.4.82-.71.97s-.85.3-1.36-.14c-1.77-1.53-3.98-2.06-5.84-3.08l-5.19-2.87,24.28-13.01-5.35,8.93-5.83,9.21Z"/>
      <polygon class="cls-52" points="184.15 225.65 171.75 219.7 184.05 200.34 184.15 225.65"/>
      <path class="cls-33" d="M112.6,219.67c-.47.11-.65-.01-.91-.4l-11.96-18.56,2.99-1.66,9.68-4.82.2,25.45Z"/>
      <path class="cls-167" d="M102.62,198.4l-3.22,1.66-8.22-12.98c-.28-.45-.25-.93-1.18-.74.07-.36.11-.88-.1-1.25l-2.69-4.7,7.38,3.76,16.87,9.29-8.84,4.96Z"/>
      <path class="cls-9" d="M110.29,219.8l-23.41-12.03,12.21-6.97,11.18,17.55.37.71c.1.19-.15.55-.34.74Z"/>
      <path class="cls-72" d="M90.01,186.35l8.78,13.98-12.4,6.35-.09-25.27c1.99,1.75,2.61,3.45,3.71,4.95Z"/>
      <path class="cls-48" d="M102.62,198.4l.1.64-2.99,1.66,11.96,18.56c.25.39.43.52.91.4.23.25.17,1.15-.51,1.14-.59,0-1.46-.67-1.8-1.02.19-.19.44-.56.34-.74l-.37-.71-11.18-17.55-12.21,6.97c-.28-.28-.66-.23-.9.04.88-.45.8-1.26.41-1.13l12.4-6.35-8.78-13.98c.92-.19.89.29,1.18.74l8.22,12.98,3.22-1.66Z"/>
      <path class="cls-140" d="M111.41,232.69c-.19.74-.78,1.02-1.45,1.36l-10.5,5.36-12.55-19.04c.29-.25.39-.47.31-.56l17.64,9.12,6.57,3.75Z"/>
      <path class="cls-181" d="M111.06,259.85l-10.21-5.25-13.8-7.52c.2-.73.9-.83,1.4-1.09l10.75-5.61,11.01,17.54c.43.69,1.1,1.16.85,1.93Z"/>
      <path class="cls-58" d="M112.62,234.47l-.14,24.58c-.16-.09-.49.01-.68-.3l-11.91-18.71,10.98-5.58c.23-.12.65-.85,1.02-.59l.74.6Z"/>
      <path class="cls-173" d="M86.22,245.14l.05-23.57c.13.12.76.2,1,.56l11.42,17.4-10.57,5.66c-.44.24-.67.46-1.14.49-.35.02-.68,0-.76-.53Z"/>
      <path class="cls-7" d="M87.21,219.82c.08.09-.02.31-.31.56l12.55,19.04,10.5-5.36c.68-.34,1.27-.63,1.45-1.36l.47.7c.09.13.48-.55.57-.41.27.43.21,1.07.17,1.49l-.74-.6c-.37-.27-.78.47-1.02.59l-10.98,5.58,11.91,18.71c.2.31.52.21.68.3l.2,1.36c.04.25-.62.35-.93.09-.2-.16-.53-.4-.69-.65.26-.78-.41-1.24-.85-1.93l-11.01-17.54-10.75,5.61c-.5.26-1.2.36-1.4,1.09-.46.24-1.1-.26-.34-.82-1.07.09-1.19-.91-.48-1.12.08.53.41.55.76.53.47-.03.7-.25,1.14-.49l10.57-5.66-11.42-17.4c-.24-.36-.87-.44-1-.56,0-1.69-.4-1.98-.26-2.35.23-.6.79-.42.75-.18-.07.46-.04.53.46.78Z"/>
      <path class="cls-104" d="M132.49,73.02c-.12-.5.17-1.48.67-1.43.56.77-.5,1.06-.67,1.43Z"/>
      <path class="cls-171" d="M115.42,185.41c-.01.8.17,1.78-.29,2.58l-15.16-7.86-9.64-4.66c.52-.55,1.58-.71,2.5-.72l19.76-.11,3,.26-.17,10.5Z"/>
      <path class="cls-3" d="M140.88,175.41l-23.88,12.5c-.16.39-.62.31-.63-.02l-.14-12.95,3-.27,20.6.03c.55,0,.95.43,1.04.71Z"/>
      <path class="cls-37" d="M142.33,136.22l-10.97.51c-1.89.09-3.62.12-5.72-.11l.09-8.51c1.51.09,2.25.34,3.35.93l13.25,7.18Z"/>
      <path class="cls-147" d="M129.67,143.22c-1.17.65-4.19-2.91-3.68-5.63,4.53-.2,8.72-.41,13.4.23l-9.71,5.41Z"/>
      <path class="cls-108" d="M176.86,15.28c.2.68-1.8,1.31-2.44.61-.56-.62-.02-1.64.53-1.83.46-.15,1.61.18,1.91,1.22Z"/>
      <path class="cls-70" d="M202.32,117.01c.8-.68,1.99-.36,2.75-.8.42-.24.41-1.41-.11-1.45-2.13-.15-3.82-.21-5.6.03-.18-1.4.18-2.5,1.22-3.4,3.13-2.73,8.56-1.92,10.26,2.01.88,2.03-.31,4.1-1.46,5.22-2.67,2.6-8.94,1.78-9.52-1.42-.06-.36.74-.66,1.04-.7.46-.06,1.12.16,1.44.51Z"/>
      <path class="cls-178" d="M159.15,15.7c.57-.32.68.2.81.31.27.21.42.93-.06,1.07-.23.07-.75-.08-.89-.19-.22-.16-.45-.85.14-1.18Z"/>
    </g>
  </g>
</svg>